<svg xmlns="http://www.w3.org/2000/svg" viewBox="0 0 1655.18 1050.55"><title>checkin101-product</title><path d="M1653.11,430.64a2.72,2.72,0,0,1-2.72,2.72h-11.61a2.72,2.72,0,0,1-2.72-2.72V389.06a2.73,2.73,0,0,1,2.72-2.72h11.61a2.73,2.73,0,0,1,2.72,2.72Z" style="fill:#d8d8d8"/><path d="M1353.3,433.36a.91.91,0,0,1-.9.91h-15.23a.91.91,0,0,1-.91-.91v-45.2a.91.91,0,0,1,.91-.91h15.23a.91.91,0,0,1,.9.91Z" style="fill:#d8d8d8"/><path d="M1337.17,331.09h15.23a.91.91,0,0,1,.91.91v22.38a.91.91,0,0,1-.91.91h-15.23a.9.9,0,0,1-.9-.9V332A.9.9,0,0,1,1337.17,331.09Z" style="fill:#d8d8d8"/><path d="M1353.3,490.44a.9.9,0,0,1-.89.9h-15.25a.9.9,0,0,1-.9-.9V446.12a.9.9,0,0,1,.9-.9h15.25a.9.9,0,0,1,.89.9Z" style="fill:#d8d8d8"/><path d="M1386,248.79H1603a46.85,46.85,0,0,1,46.85,46.85V848.49A46.85,46.85,0,0,1,1603,895.35H1386a46.85,46.85,0,0,1-46.85-46.85V295.65A46.86,46.86,0,0,1,1386,248.79Z" style="fill:#d8d8d8"/><path d="M1645,844.66a45.91,45.91,0,0,1-45.77,45.78H1389.77A45.9,45.9,0,0,1,1344,844.66V299.47a45.9,45.9,0,0,1,45.77-45.77h209.45A45.9,45.9,0,0,1,1645,299.47Z" style="fill:#ededed"/><path d="M1645,844.66a45.91,45.91,0,0,1-45.77,45.78H1389.77A45.9,45.9,0,0,1,1344,844.66V299.47a45.9,45.9,0,0,1,45.77-45.77h209.45A45.9,45.9,0,0,1,1645,299.47Z" style="fill:#ededed"/><rect x="1357.72" y="327.98" width="274.97" height="485.92" rx="4.53" ry="4.53" style="fill:#404041"/><path d="M1495.2,875.46A23.78,23.78,0,1,1,1519,851.68,23.81,23.81,0,0,1,1495.2,875.46Zm0-45.75a22,22,0,1,0,22,22A22,22,0,0,0,1495.2,829.71Z" style="fill:#d8d8d8"/><rect x="1468.61" y="285.2" width="52.81" height="9.18" rx="2.72" ry="2.72" style="fill:#6d6e70"/><circle cx="1444.69" cy="289.84" r="5.55" style="fill:#6d6e70"/><circle cx="1495.15" cy="269.65" r="3.98" style="fill:#6d6e70"/><path d="M1357.72,333.11h275a0,0,0,0,1,0,0V809.64a4.26,4.26,0,0,1-4.26,4.26H1362a4.26,4.26,0,0,1-4.26-4.26V333.11A0,0,0,0,1,1357.72,333.11Z" style="fill:#347ba8"/><path d="M1600.31,328h27.25a5.12,5.12,0,0,1,5.12,5.12v0a0,0,0,0,1,0,0h-32.38a0,0,0,0,1,0,0V328A0,0,0,0,1,1600.31,328Z" style="fill:#e55d33"/><rect x="1567.94" y="327.98" width="32.38" height="5.13" style="fill:#e55d33"/><rect x="1535.56" y="327.98" width="32.38" height="5.13" style="fill:#e47e25"/><rect x="1503.19" y="327.98" width="32.38" height="5.13" style="fill:#fcb415"/><rect x="1470.81" y="327.98" width="32.38" height="5.13" style="fill:#6cbd45"/><rect x="1438.43" y="327.98" width="32.38" height="5.13" style="fill:#5fa8dc"/><rect x="1406.06" y="327.98" width="32.38" height="5.13" style="fill:#945ba4"/><path d="M1362.85,328h43.21a0,0,0,0,1,0,0v5.13a0,0,0,0,1,0,0h-48.33a0,0,0,0,1,0,0v0A5.12,5.12,0,0,1,1362.85,328Z" style="fill:#626567"/><path d="M1493.76,376.66l-.53,1.73H1495a14.88,14.88,0,0,1,.53-1.73h-1.74Z" style="fill:#fafafa"/><path d="M1505.86,386.2c1.21-1.47,2.8-3.32,2.8-8.48,0-7.43-6.25-13.39-14.1-13.39s-14,6-14,13.39c0,13.24,16.11,17.88,20.24,17.88h.8a5.54,5.54,0,0,0,3.33-.67c1.33-.79.8-2.38.41-3.44a6.08,6.08,0,0,1-.68-3.05A4.15,4.15,0,0,1,1505.86,386.2Zm-4.66-11.66-.41,1.32c-.27.79-.41.79-1.74.79h-.8l-.41,1.59h1.74c.14,0,.27.14.27.41v.14l-.41,1.32c-.27.79-.41.79-1.74.79h-.75l-.27.79c-.68,2.26-.53,2.52-1.47,2.52h-1.33a.44.44,0,0,1-.41-.41,10.92,10.92,0,0,1,.68-2.64l.14-.14h-1.74c-.94,2.91-.68,3.17-1.74,3.17h-1.47a.44.44,0,0,1-.41-.41,11,11,0,0,1,.8-2.79h-1.59c-.14,0-.27-.14-.27-.41a2.07,2.07,0,0,1,.14-.79c.27-.94.41-1.32.94-1.32h1.47a9.48,9.48,0,0,1,.53-1.73,3.05,3.05,0,0,1-1.33-.14h-.27c-.14,0-.27-.14-.27-.41a2.07,2.07,0,0,1,.14-.79c.27-.94.41-1.32.94-1.32h1.59a22.87,22.87,0,0,0,.8-2.38c.14-.53.53-.53,1.47-.53s1.06.14,1.06.41v.26c0,.12-.41,1.59-.53,2.12h1.86l.68-2.26c.14-.53.53-.53,1.47-.53s1.06.14,1.06.41v.26c0,.12-.41,1.59-.53,2.12a5.05,5.05,0,0,1,1.86.14c.1-.1.22,0,.22.43Z" style="fill:#fafafa"/><rect x="1396.51" y="447.79" width="197.98" height="18.33" rx="5" ry="5" style="fill:#fafafa"/><rect x="1438.67" y="481.15" width="113.65" height="18.33" rx="5" ry="5" style="fill:#fafafa"/><rect x="1468" y="670.69" width="54.99" height="25.66" rx="5" ry="5" style="fill:#fafafa"/><rect x="1392.84" y="606.93" width="205.31" height="13.2" rx="4" ry="4" style="fill:#fafafa"/><rect x="1392.84" y="606.93" width="153.72" height="13.2" rx="4" ry="4" style="fill:#55acee"/><path d="M1495.65,577.1a12.76,12.76,0,0,1-5.07-1,13,13,0,0,1-6.93-6.93,13.16,13.16,0,0,1,0-10.14,13,13,0,0,1,6.93-6.93,13.16,13.16,0,0,1,10.14,0,13,13,0,0,1,6.93,6.93,13.16,13.16,0,0,1,0,10.14,13,13,0,0,1-6.93,6.93A12.76,12.76,0,0,1,1495.65,577.1Zm0-23.59a10.36,10.36,0,0,0-4.12.83,10.53,10.53,0,0,0-5.63,5.63,10.67,10.67,0,0,0,0,8.24,10.53,10.53,0,0,0,5.63,5.63,10.67,10.67,0,0,0,8.24,0,10.53,10.53,0,0,0,5.63-5.63,10.67,10.67,0,0,0,0-8.24,10.53,10.53,0,0,0-5.63-5.63A10.36,10.36,0,0,0,1495.65,553.51Zm0,12.79a15.53,15.53,0,0,1-2.17-.15,18.76,18.76,0,0,1-2.11-.42,14.6,14.6,0,0,1-2-.67,17.14,17.14,0,0,1-1.86-.92,8.86,8.86,0,0,0,.83,3.18,9.11,9.11,0,0,0,1.79,2.57,8.17,8.17,0,0,0,2.5,1.72,7.59,7.59,0,0,0,6,0,8.17,8.17,0,0,0,2.5-1.72,9.11,9.11,0,0,0,1.79-2.57,8.9,8.9,0,0,0,.83-3.18,17.32,17.32,0,0,1-1.86.92,14.65,14.65,0,0,1-2,.67,18.8,18.8,0,0,1-2.11.42A15.56,15.56,0,0,1,1495.65,566.3Zm-6.51-6.28a3.07,3.07,0,0,0,.47,1.73,1.3,1.3,0,0,0,2.31,0,3.41,3.41,0,0,0,0-3.46,1.3,1.3,0,0,0-2.31,0A3.07,3.07,0,0,0,1489.14,560Zm9.76,0a3.07,3.07,0,0,0,.47,1.73,1.3,1.3,0,0,0,2.31,0,3.42,3.42,0,0,0,0-3.46,1.3,1.3,0,0,0-2.31,0A3.07,3.07,0,0,0,1498.9,560Z" style="fill:#fafafa"/><rect x="1535.56" y="604.36" width="22" height="18.33" rx="3" ry="3" style="fill:#fafafa"/><path d="M238.4,189.23H1274.55a0,0,0,0,1,0,0V873a10,10,0,0,1-10,10H238.4a0,0,0,0,1,0,0V189.23A0,0,0,0,1,238.4,189.23Z" style="fill:#edeff4"/><path d="M2.12,179.92h236a0,0,0,0,1,0,0V883a0,0,0,0,1,0,0h-226a10,10,0,0,1-10-10V179.92A0,0,0,0,1,2.12,179.92Z" style="fill:#6a6d70"/><rect x="2.12" y="179.92" width="235.99" height="90.4" style="fill:#626567"/><rect x="2.12" y="418.52" width="235.99" height="70.09" style="fill:#626567"/><rect x="1152.26" y="179.96" width="122.29" height="9.28" style="fill:#e55d33"/><rect x="1030.26" y="179.96" width="122" height="9.28" style="fill:#e55d33"/><rect x="908.26" y="179.96" width="122" height="9.28" style="fill:#e47e25"/><rect x="786.25" y="179.96" width="122" height="9.28" style="fill:#fcb415"/><rect x="664.25" y="179.96" width="122" height="9.28" style="fill:#6cbd45"/><rect x="542.25" y="179.96" width="122" height="9.28" style="fill:#5fa8dc"/><rect x="420.24" y="179.96" width="122" height="9.28" style="fill:#945ba4"/><rect x="238.11" y="179.96" width="182.13" height="9.28" style="fill:#626567"/><rect x="59.89" y="443.21" width="148.34" height="20.73" rx="4" ry="4" style="fill:#fff;opacity:0.5"/><rect x="277.76" y="225.12" width="197.27" height="20.73" rx="4" ry="4" style="fill:#8b93a3;opacity:0.5"/><rect x="277.76" y="397.8" width="197.27" height="20.73" rx="4" ry="4" style="fill:#8b93a3;opacity:0.5"/><rect x="757.23" y="397.8" width="197.27" height="20.73" rx="4" ry="4" style="fill:#8b93a3;opacity:0.5"/><rect x="20.89" y="443.21" width="20.73" height="20.73" rx="4" ry="4" style="fill:#fff;opacity:0.5"/><rect x="59.89" y="510.98" width="148.34" height="20.73" rx="4" ry="4" style="fill:#fff;opacity:0.5"/><rect x="59.89" y="551.22" width="148.34" height="7.95" rx="3.97" ry="3.97" style="fill:#fff;opacity:0.5"/><rect x="59.89" y="568.34" width="148.34" height="7.95" rx="3.97" ry="3.97" style="fill:#fff;opacity:0.5"/><rect x="59.89" y="585.46" width="148.34" height="7.95" rx="3.97" ry="3.97" style="fill:#fff;opacity:0.5"/><rect x="59.89" y="602.78" width="148.34" height="7.95" rx="3.97" ry="3.97" style="fill:#fff;opacity:0.5"/><rect x="59.89" y="619.9" width="148.34" height="7.95" rx="3.97" ry="3.97" style="fill:#fff;opacity:0.5"/><rect x="20.89" y="510.98" width="20.73" height="20.73" rx="4" ry="4" style="fill:#fff;opacity:0.5"/><rect x="59.89" y="677.42" width="148.34" height="20.73" rx="4" ry="4" style="fill:#fff;opacity:0.5"/><rect x="59.89" y="717.66" width="148.34" height="7.95" rx="3.97" ry="3.97" style="fill:#fff;opacity:0.5"/><rect x="59.89" y="734.78" width="148.34" height="7.95" rx="3.97" ry="3.97" style="fill:#fff;opacity:0.5"/><rect x="59.89" y="751.9" width="148.34" height="7.95" rx="3.97" ry="3.97" style="fill:#fff;opacity:0.5"/><rect x="20.89" y="677.42" width="20.73" height="20.73" rx="4" ry="4" style="fill:#fff;opacity:0.5"/><line x1="2.12" y1="656.82" x2="238.11" y2="656.82" style="fill:#626567;stroke:#626567;stroke-miterlimit:10;stroke-width:2px"/><rect x="67.21" y="309.63" width="105.83" height="26.5" rx="4" ry="4" style="fill:#5fa8dc"/><rect x="36.57" y="356.08" width="165.57" height="26.5" rx="4" ry="4" style="fill:#5fa8dc"/><path d="M117.81,219.14l-1,3.13H120a26.89,26.89,0,0,1,1-3.13h-3.14Z" style="fill:#fff"/><path d="M139.67,236.39c2.18-2.65,5.06-6,5.06-15.33,0-13.42-11.3-24.19-25.49-24.19-14,0-25.27,10.77-25.27,24.19,0,23.93,29.11,32.32,36.57,32.32H132c2.4,0,4.1,0,6-1.22,2.4-1.43,1.44-4.3.74-6.21a11,11,0,0,1-1.22-5.52C137.75,238.78,138.49,237.82,139.67,236.39Zm-8.42-21.07-.74,2.39c-.48,1.43-.74,1.43-3.14,1.43h-1.44l-.74,2.87h3.14c.26,0,.48.26.48.74V223l-.74,2.39c-.48,1.43-.74,1.43-3.14,1.43h-1.35l-.48,1.43c-1.22,4.08-1,4.56-2.66,4.56H118a.79.79,0,0,1-.74-.74,19.74,19.74,0,0,1,1.22-4.78l.26-.26h-3.14c-1.7,5.26-1.22,5.73-3.14,5.73h-2.66a.79.79,0,0,1-.74-.74,19.91,19.91,0,0,1,1.44-5h-2.88c-.26,0-.48-.26-.48-.74a3.75,3.75,0,0,1,.26-1.43c.48-1.69.74-2.39,1.7-2.39h2.66a17.14,17.14,0,0,1,1-3.13,5.52,5.52,0,0,1-2.4-.26h-.48c-.26,0-.48-.26-.48-.74a3.75,3.75,0,0,1,.26-1.43c.48-1.69.74-2.39,1.7-2.39h2.88a41.33,41.33,0,0,0,1.44-4.3c.26-1,1-1,2.66-1,1.44,0,1.92.26,1.92.74v.48c0,.22-.74,2.87-1,3.82h3.36l1.22-4.08c.26-1,1-1,2.66-1,1.44,0,1.92.26,1.92.74v.48c0,.22-.74,2.87-1,3.82,1.7,0,3.14,0,3.36.26.17-.17.39,0,.39.78Z" style="fill:#fff"/><rect x="758.09" y="456.24" width="375.91" height="72.88" style="fill:#fff"/><path d="M958.54,507.67c8-11.66,15.11-14.54,20.21-14.95,8.24-.66,11.09,5.18,19.58,4,7.54-1.05,7.73-6,20.42-12.84,6.62-3.57,12.13-6.53,19.37-6.32,8.18.24,14.2,4.42,19.37,8,12.8,8.87,13.73,16.7,20.21,17.47,4.5.54,11.11-2.39,20.42-17.47" style="fill:none;stroke:#5ca8dc;stroke-miterlimit:10;stroke-width:2px"/><rect x="758.09" y="456.24" width="3.31" height="72.88" style="fill:#6fb84c"/><rect x="770.6" y="468.45" width="93.7" height="12.08" rx="4" ry="4" style="fill:#8b93a3;opacity:0.5"/><rect x="770.6" y="501.85" width="93.7" height="6.63" rx="3.31" ry="3.31" style="fill:#6fb84c"/><rect x="770.6" y="513.8" width="134.71" height="6.63" rx="3.31" ry="3.31" style="fill:#8b93a3;opacity:0.5"/><circle cx="1097.65" cy="486.06" r="3.31" style="fill:#6fb84c"/><circle cx="1077.77" cy="502.62" r="3.31" style="fill:#6fb84c"/><circle cx="1057.89" cy="486.06" r="3.31" style="fill:#6fb84c"/><circle cx="1038.02" cy="477.8" r="3.31" style="fill:#6fb84c"/><circle cx="1018.14" cy="483.84" r="3.31" style="fill:#6fb84c"/><circle cx="998.26" cy="496" r="3.31" style="fill:#6fb84c"/><circle cx="978.38" cy="492.69" r="3.31" style="fill:#6fb84c"/><circle cx="958.51" cy="508.47" r="3.31" style="fill:#6fb84c"/><rect x="758.09" y="550.52" width="375.91" height="72.88" style="fill:#fff"/><path d="M958.54,601.94c8-11.66,15.11-14.54,20.21-14.95,8.24-.66,11.09,5.18,19.58,4,7.54-1.05,7.73-6,20.42-12.84,6.62-3.57,12.13-6.53,19.37-6.32,8.18.24,14.2,4.42,19.37,8,12.8,8.87,13.73,16.7,20.21,17.47,4.5.54,11.11-2.39,20.42-17.47" style="fill:none;stroke:#5ca8dc;stroke-miterlimit:10;stroke-width:2px"/><rect x="758.09" y="550.52" width="3.31" height="72.88" style="fill:#df7c5f"/><rect x="770.6" y="562.72" width="93.7" height="12.08" rx="4" ry="4" style="fill:#8b93a3;opacity:0.5"/><rect x="770.6" y="596.12" width="93.7" height="6.63" rx="3.31" ry="3.31" style="fill:#df7c5f"/><rect x="770.6" y="608.07" width="134.71" height="6.63" rx="3.31" ry="3.31" style="fill:#8b93a3;opacity:0.5"/><circle cx="1097.65" cy="580.33" r="3.31" style="fill:#df7c5f"/><circle cx="1077.77" cy="596.9" r="3.31" style="fill:#df7c5f"/><circle cx="1057.89" cy="580.33" r="3.31" style="fill:#df7c5f"/><circle cx="1038.02" cy="572.07" r="3.31" style="fill:#df7c5f"/><circle cx="1018.14" cy="578.11" r="3.31" style="fill:#df7c5f"/><circle cx="998.26" cy="590.27" r="3.31" style="fill:#df7c5f"/><circle cx="978.38" cy="586.96" r="3.31" style="fill:#df7c5f"/><circle cx="958.51" cy="602.74" r="3.31" style="fill:#df7c5f"/><rect x="758.09" y="640.98" width="375.91" height="72.88" style="fill:#fff"/><path d="M958.54,692.4c8-11.66,15.11-14.54,20.21-14.95,8.24-.66,11.09,5.18,19.58,4,7.54-1.05,7.73-6,20.42-12.84,6.62-3.57,12.13-6.53,19.37-6.32,8.18.24,14.2,4.42,19.37,8,12.8,8.87,13.73,16.7,20.21,17.47,4.5.54,11.11-2.39,20.42-17.47" style="fill:none;stroke:#5ca8dc;stroke-miterlimit:10;stroke-width:2px"/><rect x="758.09" y="640.98" width="3.31" height="72.88" style="fill:#6fb84c"/><rect x="770.6" y="653.18" width="93.7" height="12.08" rx="4" ry="4" style="fill:#8b93a3;opacity:0.5"/><rect x="770.6" y="686.58" width="93.7" height="6.63" rx="3.31" ry="3.31" style="fill:#6fb84c"/><rect x="770.6" y="698.54" width="134.71" height="6.63" rx="3.31" ry="3.31" style="fill:#8b93a3;opacity:0.5"/><circle cx="1097.65" cy="670.79" r="3.31" style="fill:#6fb84c"/><circle cx="1077.77" cy="687.36" r="3.31" style="fill:#6fb84c"/><circle cx="1057.89" cy="670.79" r="3.31" style="fill:#6fb84c"/><circle cx="1038.02" cy="662.53" r="3.31" style="fill:#6fb84c"/><circle cx="1018.14" cy="668.57" r="3.31" style="fill:#6fb84c"/><circle cx="998.26" cy="680.73" r="3.31" style="fill:#6fb84c"/><circle cx="978.38" cy="677.42" r="3.31" style="fill:#6fb84c"/><circle cx="958.51" cy="693.21" r="3.31" style="fill:#6fb84c"/><rect x="339.27" y="463.27" width="248.73" height="10.36" rx="4" ry="4" style="fill:#7c838e;opacity:0.5"/><rect x="339.27" y="479.04" width="51.66" height="10.36" rx="4" ry="4" style="fill:#7c838e;opacity:0.5"/><circle cx="308.58" cy="476.21" r="17.22" style="fill:#6fb84c"/><rect x="339.27" y="518.76" width="248.73" height="10.36" rx="4" ry="4" style="fill:#7c838e;opacity:0.5"/><rect x="339.27" y="534.54" width="155.51" height="10.36" rx="4" ry="4" style="fill:#7c838e;opacity:0.5"/><circle cx="308.58" cy="531.71" r="17.22" style="fill:#5fa8dc"/><rect x="339.27" y="576.59" width="248.73" height="10.36" rx="4" ry="4" style="fill:#7c838e;opacity:0.5"/><rect x="339.27" y="592.37" width="91.06" height="10.36" rx="4" ry="4" style="fill:#7c838e;opacity:0.5"/><circle cx="308.58" cy="589.53" r="17.22" style="fill:#6fb84c"/><rect x="339.27" y="639.34" width="248.73" height="10.36" rx="4" ry="4" style="fill:#7c838e;opacity:0.5"/><rect x="339.27" y="655.12" width="155.51" height="10.36" rx="4" ry="4" style="fill:#7c838e;opacity:0.5"/><circle cx="308.58" cy="652.29" r="17.22" style="fill:#6fb84c"/><rect x="339.27" y="697.67" width="248.73" height="10.36" rx="4" ry="4" style="fill:#7c838e;opacity:0.5"/><rect x="339.27" y="713.45" width="51.66" height="10.36" rx="4" ry="4" style="fill:#7c838e;opacity:0.5"/><circle cx="308.58" cy="710.61" r="17.22" style="fill:#fcb415"/><rect x="339.27" y="753.07" width="248.73" height="10.36" rx="4" ry="4" style="fill:#7c838e;opacity:0.5"/><rect x="339.27" y="768.85" width="91.06" height="10.36" rx="4" ry="4" style="fill:#7c838e;opacity:0.5"/><circle cx="308.58" cy="766.01" r="17.22" style="fill:#df7c5f"/><path d="M285.57,289c.56,2.37,11.55,47,33,48.65,10.22.79,19.76-8.42,33.36-21.54C371.75,297,372,286.91,384.6,283.45s15.91,5.43,33.71,3.82c19.81-1.79,23.81-13.49,34.4-11.12,19.65,4.39,19.76,47.74,32.66,48.65,12.35.86,19.88-38.3,32.32-37.53,13.26.82,12.84,45.87,34.05,51.43,11.88,3.12,25-7.62,32.66-13.9,20.28-16.6,17.78-32.42,33.36-37.88,7.89-2.77,16.15-.57,32.66,3.82,12.85,3.42,22.05,7.85,33,13.2s12.17,6.78,33.36,18.42c25.17,13.83,29.5,15.13,33.36,16a72.49,72.49,0,0,0,33.71-.69c3.21-.85,18.32-5.09,33.36-19.46,24-22.92,23.31-48.26,31.62-48.3,13.47-.07,19.77,66.49,34.4,66.72,11.4.18,15.94-40.13,32.66-41.35,12.87-.94,18.28,22.34,33.71,21.89,10.73-.31,11.37-11.67,31.27-23.28,7.7-4.49,7.64-2.82,33.71-12.51,27.53-10.24,28.52-12.45,33.36-11.12,19.27,5.31,17.06,44.2,33,46.91,11.73,2,17.72-18.22,32.66-17.37,16.68.94,21.6,26.82,34.05,25.71,11.22-1,9.8-22.25,30.58-38.22,14.11-10.85,29.54-12.4,34.75-12.86" style="fill:none;stroke:#5ca8dc;stroke-miterlimit:10;stroke-width:3px"/><circle cx="1213.26" cy="274.14" r="6.63" style="fill:#6cbd45"/><circle cx="1178.07" cy="287.4" r="6.63" style="fill:#6cbd45"/><circle cx="1147.39" cy="324.74" r="6.63" style="fill:#df7c5f"/><circle cx="1114.26" cy="300.65" r="6.63" style="fill:#6cbd45"/><circle cx="1081.13" cy="318.12" r="6.63" style="fill:#df7c5f"/><circle cx="1048.01" cy="270.32" r="6.63" style="fill:#6cbd45"/><circle cx="1014.88" cy="280.77" r="6.63" style="fill:#6cbd45"/><circle cx="981.75" cy="294.02" r="6.63" style="fill:#6cbd45"/><circle cx="948.62" cy="316.26" r="6.63" style="fill:#df7c5f"/><circle cx="915.49" cy="294.02" r="6.63" style="fill:#6cbd45"/><circle cx="882.36" cy="336.13" r="6.63" style="fill:#df7c5f"/><circle cx="849.23" cy="270.32" r="6.63" style="fill:#6cbd45"/><circle cx="816.1" cy="318.12" r="6.63" style="fill:#df7c5f"/><circle cx="782.98" cy="338" r="6.63" style="fill:#df7c5f"/><circle cx="749.85" cy="338" r="6.63" style="fill:#df7c5f"/><circle cx="716.72" cy="322.88" r="6.63" style="fill:#df7c5f"/><circle cx="683.59" cy="304.12" r="6.63" style="fill:#6cbd45"/><circle cx="650.46" cy="290.87" r="6.63" style="fill:#6cbd45"/><circle cx="617.33" cy="287.4" r="6.63" style="fill:#6cbd45"/><circle cx="584.2" cy="324.74" r="6.63" style="fill:#df7c5f"/><circle cx="551.08" cy="338" r="6.63" style="fill:#df7c5f"/><circle cx="517.95" cy="287.4" r="6.63" style="fill:#6cbd45"/><circle cx="484.82" cy="324.74" r="6.63" style="fill:#df7c5f"/><circle cx="451.69" cy="276.54" r="6.63" style="fill:#6cbd45"/><circle cx="418.56" cy="287.4" r="6.63" style="fill:#6cbd45"/><circle cx="385.43" cy="283.17" r="6.63" style="fill:#6cbd45"/><circle cx="352.3" cy="316.26" r="6.63" style="fill:#df7c5f"/><circle cx="319.17" cy="338" r="6.63" style="fill:#df7c5f"/><circle cx="286.05" cy="289.79" r="6.63" style="fill:#6cbd45"/><path d="M1274.51,177.21H2V147.5C2,143,5.64,141,10.07,141h1257c4.43,0,7.45,2,7.45,6.54Z" style="fill:#ededed"/><ellipse cx="22.85" cy="159.73" rx="7.48" ry="7.68" style="fill:#e74c3c;opacity:0.71"/><ellipse cx="47.34" cy="159.73" rx="7.48" ry="7.68" style="fill:#f1c40f;opacity:0.71"/><ellipse cx="71.84" cy="159.73" rx="7.48" ry="7.68" style="fill:#2ecc71;opacity:0.71"/><rect x="2" y="177.21" width="1272.8" height="2.65" style="fill:#d8d8d8"/><rect x="2.12" y="140.96" width="1272.39" height="742.08" rx="10" ry="10" style="fill:none"/><text transform="translate(842.98 27.94)" style="font-size:28px;fill:#fff;font-family:OpenSans-Semibold, Open Sans;font-weight:700">QUICKLY IDENTIFY<tspan x="67.01" y="33.6" xml:space="preserve"> TRENDS</tspan></text><text transform="translate(197.63 27.94)" style="font-size:28px;fill:#fff;font-family:OpenSans-Semibold, Open Sans;font-weight:700">GAUGE SUCCESS <tspan x="28.7" y="33.6">IN REALTIME</tspan></text><text transform="translate(1395.14 127.89)" style="font-size:28px;fill:#fff;font-family:OpenSans-Semibold, Open Sans;font-weight:700">ASK QUESTIONS<tspan x="14.3" y="33.6">THAT MATTER</tspan></text><text transform="translate(1379.65 1006.38)" style="font-size:28px;fill:#fff;font-family:OpenSans-Semibold, Open Sans;font-weight:700">GET CONTEXT FOR<tspan x="8.66" y="33.6">CONVERSATIONS</tspan></text><text transform="translate(794.8 1006.38)" style="font-size:28px;fill:#fff;font-family:OpenSans-Semibold, Open Sans;font-weight:700">VIEW ALL YOUR TEAMS &amp;<tspan x="-28.76" y="33.6">PROGRAMMES IN ONE PLACE</tspan></text><text transform="translate(308.66 1006.38)" style="font-size:28px;fill:#fff;font-family:OpenSans-Semibold, Open Sans;font-weight:700">TAKE ACTION WITH<tspan x="78.03" y="33.6">A CLICK</tspan></text><line x1="965.08" y1="83.86" x2="965.08" y2="243.05" style="fill:none;stroke:#5fa8dc;stroke-miterlimit:10;stroke-width:6px"/><circle cx="965.08" cy="242.72" r="6.77" style="fill:#5fa8dc"/><line x1="1495.57" y1="185.22" x2="1495.57" y2="427.09" style="fill:none;stroke:#5fa8dc;stroke-miterlimit:10;stroke-width:6px"/><circle cx="1495.57" cy="426.76" r="6.77" style="fill:#5fa8dc"/><line x1="308.02" y1="83.86" x2="308.02" y2="449.41" style="fill:none;stroke:#5fa8dc;stroke-miterlimit:10;stroke-width:6px"/><circle cx="308.02" cy="449.07" r="6.77" style="fill:#5fa8dc"/><line x1="433.43" y1="965.7" x2="433.43" y2="806.51" style="fill:none;stroke:#5fa8dc;stroke-miterlimit:10;stroke-width:6px"/><circle cx="433.43" cy="806.85" r="6.77" style="fill:#5fa8dc"/><line x1="966.98" y1="965.7" x2="966.98" y2="600.15" style="fill:none;stroke:#5fa8dc;stroke-miterlimit:10;stroke-width:6px"/><circle cx="966.98" cy="600.49" r="6.77" style="fill:#5fa8dc"/><line x1="1495.89" y1="965.7" x2="1495.89" y2="643.81" style="fill:none;stroke:#5fa8dc;stroke-miterlimit:10;stroke-width:6px"/><circle cx="1495.89" cy="644.15" r="6.77" style="fill:#5fa8dc"/></svg>