<svg xmlns="http://www.w3.org/2000/svg" viewBox="0 0 200 200"><title>checkin101-action</title><path d="M196.56,183H3.52a3.13,3.13,0,0,1-3-3.23v-111a3.13,3.13,0,0,1,3-3.23H167.07l6.27-7.34,6.27,7.34h16.94a3.13,3.13,0,0,1,3,3.23v111A3.13,3.13,0,0,1,196.56,183Z" style="fill:#edf0f5;stroke:#b3b3b3;stroke-miterlimit:10;stroke-width:0.25px"/><rect x="34.59" y="76.86" width="18.12" height="6.64" rx="1" ry="1" style="fill:#959dab"/><rect x="35.15" y="115.26" width="42.28" height="6.64" rx="1" ry="1" style="fill:#959dab"/><rect x="81.41" y="161.54" width="38.43" height="13.19" rx="2" ry="2" style="fill:#55acee"/><rect x="35.15" y="127.73" width="129.78" height="25.09" style="fill:#fff;stroke:#e6e6e6;stroke-miterlimit:10;stroke-width:0.5px"/><text transform="translate(41.29 138.52)" style="font-size:5.435453414916992px;fill:#959dab;font-family:OpenSans-Light, Open Sans">Hi Alex, let’s have a chat about what’s going on<tspan x="0" y="6.52">this week! </tspan></text><rect x="34.8" y="90.41" width="95.36" height="16.94" style="fill:#fff;stroke:#e6e6e6;stroke-miterlimit:10;stroke-width:0.5px"/><text transform="translate(41.29 101.21)" style="font-size:5.435453414916992px;fill:#959dab;font-family:OpenSans-Light, Open Sans">Alex A</text><circle cx="24.14" cy="36.56" r="14.56" style="fill:#6fb84c"/><circle cx="77.2" cy="36.56" r="14.56" style="fill:#6fb84c"/><circle cx="126.51" cy="36.56" r="14.56" style="fill:#fcb415"/><circle cx="173.34" cy="36.56" r="14.56" style="fill:#df7c5f"/><path d="M31.45,32.78a2.16,2.16,0,0,1-.4,1.23,3.88,3.88,0,0,1-1,1l-3.82,2.65-.35.25-.44.31-.42.27a2.49,2.49,0,0,1-.47.22,1.3,1.3,0,0,1-.41.07h0a1.3,1.3,0,0,1-.41-.07,2.48,2.48,0,0,1-.47-.22l-.42-.27-.44-.31L22,37.67l-2.14-1.49L18.24,35a4,4,0,0,1-1-.94A1.9,1.9,0,0,1,16.83,33a1.65,1.65,0,0,1,.34-1.06,1.17,1.17,0,0,1,1-.42h12a1.32,1.32,0,0,1,1.31,1.31Zm0,2.4v6.48A1.31,1.31,0,0,1,30.15,43h-12a1.31,1.31,0,0,1-1.31-1.31V35.18a4.32,4.32,0,0,0,.82.71q3,2,4.05,2.81l.75.53a4.64,4.64,0,0,0,.77.39,2.35,2.35,0,0,0,.9.2h0a2.35,2.35,0,0,0,.9-.2,4.65,4.65,0,0,0,.77-.39l.75-.53q1.39-1,4.06-2.81A4.51,4.51,0,0,0,31.45,35.18Z" style="fill:#fff"/><path d="M84.5,32.78A2.16,2.16,0,0,1,84.1,34a3.88,3.88,0,0,1-1,1l-3.82,2.65-.35.25-.44.31-.42.27a2.49,2.49,0,0,1-.47.22,1.3,1.3,0,0,1-.41.07h0a1.3,1.3,0,0,1-.41-.07,2.48,2.48,0,0,1-.47-.22l-.42-.27-.44-.31-.35-.25L73,36.18,71.29,35a4,4,0,0,1-1-.94A1.9,1.9,0,0,1,69.89,33a1.65,1.65,0,0,1,.34-1.06,1.17,1.17,0,0,1,1-.42h12a1.32,1.32,0,0,1,1.31,1.31Zm0,2.4v6.48A1.31,1.31,0,0,1,83.2,43h-12a1.31,1.31,0,0,1-1.31-1.31V35.18a4.32,4.32,0,0,0,.82.71q3,2,4.05,2.81l.75.53a4.64,4.64,0,0,0,.77.39,2.35,2.35,0,0,0,.9.2h0a2.35,2.35,0,0,0,.9-.2,4.65,4.65,0,0,0,.77-.39l.75-.53q1.39-1,4.06-2.81A4.51,4.51,0,0,0,84.5,35.18Z" style="fill:#fff"/><path d="M133.82,32.78a2.16,2.16,0,0,1-.4,1.23,3.88,3.88,0,0,1-1,1l-3.82,2.65-.35.25-.44.31-.42.27a2.49,2.49,0,0,1-.47.22,1.3,1.3,0,0,1-.41.07h0a1.3,1.3,0,0,1-.41-.07,2.48,2.48,0,0,1-.47-.22l-.42-.27-.44-.31-.35-.25-2.14-1.49L120.6,35a4,4,0,0,1-1-.94A1.9,1.9,0,0,1,119.2,33a1.65,1.65,0,0,1,.34-1.06,1.17,1.17,0,0,1,1-.42h12a1.32,1.32,0,0,1,1.31,1.31Zm0,2.4v6.48A1.31,1.31,0,0,1,132.51,43h-12a1.31,1.31,0,0,1-1.31-1.31V35.18a4.32,4.32,0,0,0,.82.71q3,2,4.05,2.81l.75.53a4.64,4.64,0,0,0,.77.39,2.35,2.35,0,0,0,.9.2h0a2.35,2.35,0,0,0,.9-.2,4.65,4.65,0,0,0,.77-.39l.75-.53q1.39-1,4.06-2.81A4.51,4.51,0,0,0,133.82,35.18Z" style="fill:#fff"/><path d="M180.65,32.78a2.16,2.16,0,0,1-.4,1.23,3.88,3.88,0,0,1-1,1l-3.82,2.65-.35.25-.44.31-.42.27a2.49,2.49,0,0,1-.47.22,1.3,1.3,0,0,1-.41.07h0a1.3,1.3,0,0,1-.41-.07,2.48,2.48,0,0,1-.47-.22l-.42-.27-.44-.31-.35-.25-2.14-1.49L167.44,35a4,4,0,0,1-1-.94A1.9,1.9,0,0,1,166,33a1.65,1.65,0,0,1,.34-1.06,1.17,1.17,0,0,1,1-.42h12a1.32,1.32,0,0,1,1.31,1.31Zm0,2.4v6.48A1.31,1.31,0,0,1,179.35,43h-12A1.31,1.31,0,0,1,166,41.66V35.18a4.32,4.32,0,0,0,.82.71q3,2,4.05,2.81l.75.53a4.64,4.64,0,0,0,.77.39,2.35,2.35,0,0,0,.9.2h0a2.35,2.35,0,0,0,.9-.2,4.65,4.65,0,0,0,.77-.39l.75-.53q1.39-1,4.06-2.81A4.51,4.51,0,0,0,180.65,35.18Z" style="fill:#fff"/></svg>