<svg xmlns="http://www.w3.org/2000/svg" viewBox="0 0 486.36 291.8"><title>checkin101-sentiment</title><path d="M13.81,10.07a2.73,2.73,0,0,1-1,2.27,4.55,4.55,0,0,1-2.88.82,6.88,6.88,0,0,1-3-.57V10.91a8.17,8.17,0,0,0,1.58.55,6.67,6.67,0,0,0,1.55.2,2.47,2.47,0,0,0,1.55-.4,1.31,1.31,0,0,0,.5-1.07,1.35,1.35,0,0,0-.46-1,6.91,6.91,0,0,0-1.9-1A5,5,0,0,1,7.61,6.78,2.9,2.9,0,0,1,7,4.93,2.6,2.6,0,0,1,8,2.8,4,4,0,0,1,10.55,2a7.6,7.6,0,0,1,3.1.68l-.56,1.45a6.78,6.78,0,0,0-2.58-.61,2,2,0,0,0-1.3.37,1.23,1.23,0,0,0-.45,1,1.39,1.39,0,0,0,.18.72,1.82,1.82,0,0,0,.59.57A9.89,9.89,0,0,0,11,6.9a8,8,0,0,1,1.75.93,2.72,2.72,0,0,1,.82,1A2.92,2.92,0,0,1,13.81,10.07Z" transform="translate(-6.87 -2)" style="fill:#8c94a3"/><path d="M22,13H15.91V2.17H22v1.5H17.68v3h4.09V8.1H17.68v3.4H22Z" transform="translate(-6.87 -2)" style="fill:#8c94a3"/><path d="M33.42,13H31.25L25.91,4.37h-.06l0,.48q.1,1.38.1,2.52V13H24.39V2.17h2.15l5.32,8.59h0q0-.17-.06-1.24t0-1.67V2.17h1.62Z" transform="translate(-6.87 -2)" style="fill:#8c94a3"/><path d="M40,13H38.25V3.69H35.06V2.17h8.15V3.69H40Z" transform="translate(-6.87 -2)" style="fill:#8c94a3"/><path d="M44.87,13V2.17h1.77V13Z" transform="translate(-6.87 -2)" style="fill:#8c94a3"/><path d="M54.19,13,51,4H51q.13,2,.13,3.78V13H49.51V2.17H52l3,8.62h0l3.1-8.62h2.51V13H59V7.65q0-.81,0-2.11T59.07,4H59l-3.25,9Z" transform="translate(-6.87 -2)" style="fill:#8c94a3"/><path d="M69.65,13H63.52V2.17h6.13v1.5H65.29v3h4.09V8.1H65.29v3.4h4.36Z" transform="translate(-6.87 -2)" style="fill:#8c94a3"/><path d="M81,13H78.85L73.52,4.37h-.06l0,.48q.1,1.38.1,2.52V13H72V2.17h2.15l5.32,8.59h0q0-.17-.06-1.24t0-1.67V2.17H81Z" transform="translate(-6.87 -2)" style="fill:#8c94a3"/><path d="M87.63,13H85.86V3.69H82.67V2.17h8.15V3.69H87.63Z" transform="translate(-6.87 -2)" style="fill:#8c94a3"/><path d="M96.85,2.17,92.82,13H91.17l4-10.84Z" transform="translate(-6.87 -2)" style="fill:#8c94a3"/><path d="M100.18,8.68V13H98.41V2.17h3.06a5,5,0,0,1,3.11.79,2.82,2.82,0,0,1,1,2.37,3,3,0,0,1-2.11,2.88l3.06,4.8h-2l-2.59-4.33Zm0-1.47h1.23a2.81,2.81,0,0,0,1.79-.46,1.67,1.67,0,0,0,.56-1.36,1.47,1.47,0,0,0-.6-1.32,3.29,3.29,0,0,0-1.81-.4h-1.17Z" transform="translate(-6.87 -2)" style="fill:#8c94a3"/><path d="M114.24,13h-6.13V2.17h6.13v1.5h-4.36v3H114V8.1h-4.09v3.4h4.36Z" transform="translate(-6.87 -2)" style="fill:#8c94a3"/><path d="M122.84,10.07a2.73,2.73,0,0,1-1,2.27,4.55,4.55,0,0,1-2.88.82,6.88,6.88,0,0,1-3-.57V10.91a8.17,8.17,0,0,0,1.58.55,6.67,6.67,0,0,0,1.55.2,2.47,2.47,0,0,0,1.55-.4,1.31,1.31,0,0,0,.5-1.07,1.35,1.35,0,0,0-.46-1,6.91,6.91,0,0,0-1.9-1,5,5,0,0,1-2.09-1.37A2.9,2.9,0,0,1,116,4.93a2.6,2.6,0,0,1,1-2.14A4,4,0,0,1,119.57,2a7.6,7.6,0,0,1,3.1.68l-.56,1.45a6.78,6.78,0,0,0-2.58-.61,2,2,0,0,0-1.3.37,1.23,1.23,0,0,0-.45,1,1.39,1.39,0,0,0,.18.72,1.82,1.82,0,0,0,.59.57,9.89,9.89,0,0,0,1.47.7,8,8,0,0,1,1.75.93,2.72,2.72,0,0,1,.82,1A2.92,2.92,0,0,1,122.84,10.07Z" transform="translate(-6.87 -2)" style="fill:#8c94a3"/><path d="M124.94,13V2.17h1.77V13Z" transform="translate(-6.87 -2)" style="fill:#8c94a3"/><path d="M135.82,10.07a2.73,2.73,0,0,1-1,2.27,4.55,4.55,0,0,1-2.88.82,6.88,6.88,0,0,1-3-.57V10.91a8.17,8.17,0,0,0,1.58.55,6.67,6.67,0,0,0,1.55.2,2.47,2.47,0,0,0,1.55-.4,1.31,1.31,0,0,0,.5-1.07,1.35,1.35,0,0,0-.46-1,6.91,6.91,0,0,0-1.9-1,5,5,0,0,1-2.09-1.37A2.9,2.9,0,0,1,129,4.93a2.6,2.6,0,0,1,1-2.14A4,4,0,0,1,132.56,2a7.6,7.6,0,0,1,3.1.68l-.56,1.45a6.78,6.78,0,0,0-2.58-.61,2,2,0,0,0-1.3.37,1.23,1.23,0,0,0-.45,1,1.39,1.39,0,0,0,.18.72,1.82,1.82,0,0,0,.59.57,9.89,9.89,0,0,0,1.47.7,8,8,0,0,1,1.75.93,2.72,2.72,0,0,1,.82,1A2.92,2.92,0,0,1,135.82,10.07Z" transform="translate(-6.87 -2)" style="fill:#8c94a3"/><path d="M141.66,13h-1.77V3.69H136.7V2.17h8.15V3.69h-3.19Z" transform="translate(-6.87 -2)" style="fill:#8c94a3"/><path d="M153.24,13l-1.08-3H148l-1.06,3h-1.87l4.06-10.88h1.93L155.12,13Zm-1.55-4.54-1-3q-.11-.3-.31-.93t-.27-.93a16.54,16.54,0,0,1-.59,2l-1,2.83Z" transform="translate(-6.87 -2)" style="fill:#8c94a3"/><path d="M165.58,13h-2.17l-5.33-8.64H158l0,.48q.1,1.38.1,2.52V13h-1.61V2.17h2.15L164,10.77h0q0-.17-.06-1.24t0-1.67V2.17h1.62Z" transform="translate(-6.87 -2)" style="fill:#8c94a3"/><path d="M173.06,3.54a2.92,2.92,0,0,0-2.4,1.08,4.63,4.63,0,0,0-.87,3,4.66,4.66,0,0,0,.84,3,3,3,0,0,0,2.44,1,6.41,6.41,0,0,0,1.33-.14q.65-.14,1.34-.35v1.52a8.14,8.14,0,0,1-2.89.48,4.62,4.62,0,0,1-3.66-1.44,6,6,0,0,1-1.28-4.13,6.67,6.67,0,0,1,.62-3,4.42,4.42,0,0,1,1.79-1.94A5.42,5.42,0,0,1,173.07,2a6.83,6.83,0,0,1,3.07.7l-.64,1.48a9.5,9.5,0,0,0-1.16-.46A4.18,4.18,0,0,0,173.06,3.54Z" transform="translate(-6.87 -2)" style="fill:#8c94a3"/><path d="M184.2,13h-6.13V2.17h6.13v1.5h-4.36v3h4.09V8.1h-4.09v3.4h4.36Z" transform="translate(-6.87 -2)" style="fill:#8c94a3"/><path d="M192.26,8.68V13h-1.77V2.17h3.06a5,5,0,0,1,3.11.79,2.82,2.82,0,0,1,1,2.37,3,3,0,0,1-2.11,2.88l3.06,4.8h-2L194,8.68Zm0-1.47h1.23a2.81,2.81,0,0,0,1.79-.46,1.67,1.67,0,0,0,.56-1.36,1.47,1.47,0,0,0-.6-1.32,3.29,3.29,0,0,0-1.81-.4h-1.17Z" transform="translate(-6.87 -2)" style="fill:#8c94a3"/><path d="M206.32,13h-6.13V2.17h6.13v1.5H202v3h4.09V8.1H202v3.4h4.36Z" transform="translate(-6.87 -2)" style="fill:#8c94a3"/><path d="M215.84,5.45a3.16,3.16,0,0,1-1.11,2.6,4.9,4.9,0,0,1-3.17.9h-1.13V13h-1.77V2.17h3.12a4.73,4.73,0,0,1,3,.83A3,3,0,0,1,215.84,5.45Zm-5.41,2h.94a3.37,3.37,0,0,0,2-.47A1.73,1.73,0,0,0,214,5.51a1.68,1.68,0,0,0-.57-1.39,2.82,2.82,0,0,0-1.78-.46h-1.23Z" transform="translate(-6.87 -2)" style="fill:#8c94a3"/><path d="M227.63,7.58a5.93,5.93,0,0,1-1.32,4.12,5.56,5.56,0,0,1-7.52,0,6,6,0,0,1-1.32-4.14,5.87,5.87,0,0,1,1.32-4.12A4.88,4.88,0,0,1,222.58,2a4.78,4.78,0,0,1,3.74,1.46A5.92,5.92,0,0,1,227.63,7.58Zm-8.27,0a4.86,4.86,0,0,0,.81,3,3.29,3.29,0,0,0,4.78,0,4.87,4.87,0,0,0,.8-3,4.88,4.88,0,0,0-.8-3,2.82,2.82,0,0,0-2.38-1,2.88,2.88,0,0,0-2.41,1A4.81,4.81,0,0,0,219.36,7.58Z" transform="translate(-6.87 -2)" style="fill:#8c94a3"/><path d="M231.73,8.68V13H230V2.17H233a5,5,0,0,1,3.11.79,2.82,2.82,0,0,1,1,2.37A3,3,0,0,1,235,8.22L238.1,13h-2l-2.59-4.33Zm0-1.47H233a2.81,2.81,0,0,0,1.79-.46,1.67,1.67,0,0,0,.56-1.36,1.47,1.47,0,0,0-.6-1.32,3.29,3.29,0,0,0-1.81-.4h-1.17Z" transform="translate(-6.87 -2)" style="fill:#8c94a3"/><path d="M243.41,13h-1.77V3.69h-3.19V2.17h8.15V3.69h-3.19Z" transform="translate(-6.87 -2)" style="fill:#8c94a3"/><path d="M31.23,60.57c21,10.56,93.13,32,110.29,29.65C172,86,223.15,82.81,251.4,103.69c38.4,28.39,76.18,36.19,109.45,37.73,15.23.71,88.16,33.71,109.87,61.09V41.71H31.23Z" transform="translate(-6.87 -2)" style="fill:#6fb94c;opacity:0.7000000000000001"/><path d="M470.72,202.51c-21.71-27.38-94.64-60.38-109.87-61.09-33.26-1.54-71-9.34-109.45-37.73C223.15,82.81,172,86,141.53,90.22c-17.17,2.39-89.3-19.08-110.29-29.65V218.68c11.83-.9,78.21.06,110.29,0,27,0,92.4-4.47,110.29,2.7,30.62,12.26,76.59,22.48,109.45,18.87,25.26-2.77,94.65,23.15,109.87,34.14Z" transform="translate(-6.87 -2)" style="fill:#fdb515;opacity:0.7000000000000001"/><path d="M31.23,218.68c11.83-.9,78.21.06,110.29,0,27,0,92.4-4.47,110.29,2.7,30.62,12.26,76.59,22.48,109.45,18.87,25.26-2.77,94.65,23.15,109.87,34.14H31.23Z" transform="translate(-6.87 -2)" style="fill:#e07c5f;opacity:0.7000000000000001"/><path d="M470.72,202.51c-21.71-27.38-94.64-60.38-109.87-61.09-33.26-1.54-71-9.34-109.45-37.73C223.15,82.81,172,86,141.53,90.22c-17.17,2.39-89.3-19.08-110.29-29.65" transform="translate(-6.87 -2)" style="fill:none;stroke:#fff;stroke-miterlimit:10;stroke-width:0.6161427821310674px"/><path d="M31.23,218.68c11.83-.9,78.21.06,110.29,0,27,0,92.4-4.47,110.29,2.7,30.62,12.26,76.59,22.48,109.45,18.87,25.26-2.77,94.65,23.15,109.87,34.14" transform="translate(-6.87 -2)" style="fill:none;stroke:#fff;stroke-miterlimit:10;stroke-width:0.6161427821310674px"/><ellipse cx="464.2" cy="39.25" rx="3.29" ry="2.7" style="fill:#6fb94c"/><ellipse cx="464.2" cy="39.25" rx="3.29" ry="2.7" style="fill:none;stroke:#fff;stroke-miterlimit:10;stroke-width:1.4890595316201738px"/><ellipse cx="354.33" cy="39.25" rx="3.29" ry="2.7" style="fill:#6fb94c"/><ellipse cx="354.33" cy="39.25" rx="3.29" ry="2.7" style="fill:none;stroke:#fff;stroke-miterlimit:10;stroke-width:1.4890595316201738px"/><ellipse cx="244.46" cy="39.25" rx="3.29" ry="2.7" style="fill:#6fb94c"/><ellipse cx="244.46" cy="39.25" rx="3.29" ry="2.7" style="fill:none;stroke:#fff;stroke-miterlimit:10;stroke-width:1.4890595316201738px"/><ellipse cx="134.59" cy="39.25" rx="3.29" ry="2.7" style="fill:#6fb94c"/><ellipse cx="134.59" cy="39.25" rx="3.29" ry="2.7" style="fill:none;stroke:#fff;stroke-miterlimit:10;stroke-width:1.4890595316191695px"/><ellipse cx="24.72" cy="39.25" rx="3.29" ry="2.7" style="fill:#6fb94c"/><ellipse cx="24.72" cy="39.25" rx="3.29" ry="2.7" style="fill:none;stroke:#fff;stroke-miterlimit:10;stroke-width:1.489059531620676px"/><ellipse cx="464.2" cy="200.96" rx="3.29" ry="2.7" style="fill:#fdb515"/><ellipse cx="464.2" cy="200.96" rx="3.29" ry="2.7" style="fill:none;stroke:#fff;stroke-miterlimit:10;stroke-width:1.4890595316201738px"/><ellipse cx="354.33" cy="138.97" rx="3.29" ry="2.7" style="fill:#fdb515"/><ellipse cx="354.33" cy="138.97" rx="3.29" ry="2.7" style="fill:none;stroke:#fff;stroke-miterlimit:10;stroke-width:1.4890595316201738px"/><ellipse cx="244.46" cy="101.24" rx="3.29" ry="2.7" style="fill:#fdb515"/><ellipse cx="244.46" cy="101.24" rx="3.29" ry="2.7" style="fill:none;stroke:#fff;stroke-miterlimit:10;stroke-width:1.4890595316201738px"/><ellipse cx="134.59" cy="87.77" rx="3.29" ry="2.7" style="fill:#fdb515"/><ellipse cx="134.59" cy="87.77" rx="3.29" ry="2.7" style="fill:none;stroke:#fff;stroke-miterlimit:10;stroke-width:1.4890595316191695px"/><ellipse cx="24.72" cy="59.02" rx="3.29" ry="2.7" style="fill:#fdb515"/><ellipse cx="24.72" cy="59.02" rx="3.29" ry="2.7" style="fill:none;stroke:#fff;stroke-miterlimit:10;stroke-width:1.489059531620676px"/><ellipse cx="463.26" cy="271.93" rx="3.29" ry="2.7" style="fill:#e07c5f;stroke:#fff;stroke-miterlimit:10;stroke-width:1.1412615371693304px"/><ellipse cx="353.39" cy="237.79" rx="3.29" ry="2.7" style="fill:#e07c5f"/><ellipse cx="353.39" cy="237.79" rx="3.29" ry="2.7" style="fill:none;stroke:#fff;stroke-miterlimit:10;stroke-width:1.4890595316201738px"/><ellipse cx="243.52" cy="218.93" rx="3.29" ry="2.7" style="fill:#e07c5f"/><ellipse cx="243.52" cy="218.93" rx="3.29" ry="2.7" style="fill:none;stroke:#fff;stroke-miterlimit:10;stroke-width:1.4890595316201738px"/><ellipse cx="133.65" cy="216.23" rx="3.29" ry="2.7" style="fill:#e07c5f"/><ellipse cx="133.65" cy="216.23" rx="3.29" ry="2.7" style="fill:none;stroke:#fff;stroke-miterlimit:10;stroke-width:1.4890595316191695px"/><ellipse cx="23.78" cy="216.23" rx="3.29" ry="2.7" style="fill:#e07c5f"/><ellipse cx="23.78" cy="216.23" rx="3.29" ry="2.7" style="fill:none;stroke:#fff;stroke-miterlimit:10;stroke-width:1.489059531620676px"/><path d="M13.78,47.16h-.29V44q0-.43,0-.89l-.09.09-.91.71-.17-.21,1.17-.87h.25Z" transform="translate(-6.87 -2)"/><path d="M18.31,45A3.2,3.2,0,0,1,18,46.68a1.16,1.16,0,0,1-1,.54,1.13,1.13,0,0,1-1-.56,4.18,4.18,0,0,1,0-3.33,1.14,1.14,0,0,1,1-.54,1.15,1.15,0,0,1,1,.56A3.1,3.1,0,0,1,18.31,45Zm-2.45,0a3.2,3.2,0,0,0,.26,1.48.91.91,0,0,0,1.61,0A3.3,3.3,0,0,0,18,45a3.26,3.26,0,0,0-.25-1.45.85.85,0,0,0-.81-.49.84.84,0,0,0-.81.49A3.31,3.31,0,0,0,15.87,45Z" transform="translate(-6.87 -2)"/><path d="M21.75,45a3.2,3.2,0,0,1-.35,1.68,1.16,1.16,0,0,1-1,.54,1.13,1.13,0,0,1-1-.56,4.18,4.18,0,0,1,0-3.33,1.14,1.14,0,0,1,1-.54,1.15,1.15,0,0,1,1,.56A3.1,3.1,0,0,1,21.75,45Zm-2.45,0a3.2,3.2,0,0,0,.26,1.48.91.91,0,0,0,1.61,0A3.3,3.3,0,0,0,21.43,45a3.26,3.26,0,0,0-.25-1.45.85.85,0,0,0-.81-.49.84.84,0,0,0-.81.49A3.31,3.31,0,0,0,19.31,45Z" transform="translate(-6.87 -2)"/><path d="M24.11,44.14a1.89,1.89,0,0,1-.22,1,.71.71,0,0,1-.64.35.69.69,0,0,1-.61-.35,1.89,1.89,0,0,1-.22-1,1.93,1.93,0,0,1,.21-1,.69.69,0,0,1,.62-.34.71.71,0,0,1,.63.35A1.85,1.85,0,0,1,24.11,44.14Zm-1.4,0a2,2,0,0,0,.13.82.44.44,0,0,0,.41.28q.57,0,.57-1.1a1.77,1.77,0,0,0-.15-.81.46.46,0,0,0-.42-.27.44.44,0,0,0-.41.27A1.93,1.93,0,0,0,22.71,44.14Zm3.15-1.28-2.39,4.3h-.28l2.39-4.3Zm.77,3a1.92,1.92,0,0,1-.22,1,.7.7,0,0,1-.63.35.69.69,0,0,1-.62-.36,2.4,2.4,0,0,1,0-2,.74.74,0,0,1,1.25,0A1.85,1.85,0,0,1,26.62,45.87Zm-1.4,0a1.94,1.94,0,0,0,.13.82.44.44,0,0,0,.42.27q.57,0,.57-1.09t-.57-1.09a.44.44,0,0,0-.42.27A1.93,1.93,0,0,0,25.22,45.87Z" transform="translate(-6.87 -2)"/><path d="M21.27,272.35a3.2,3.2,0,0,1-.35,1.68,1.16,1.16,0,0,1-1,.54,1.13,1.13,0,0,1-1-.56,4.18,4.18,0,0,1,0-3.33,1.14,1.14,0,0,1,1-.54,1.16,1.16,0,0,1,1,.56A3.1,3.1,0,0,1,21.27,272.35Zm-2.45,0a3.2,3.2,0,0,0,.26,1.48.91.91,0,0,0,1.61,0,3.3,3.3,0,0,0,.25-1.46,3.25,3.25,0,0,0-.25-1.45.85.85,0,0,0-.81-.49.84.84,0,0,0-.81.49A3.3,3.3,0,0,0,18.82,272.35Z" transform="translate(-6.87 -2)"/><path d="M23.63,271.5a1.9,1.9,0,0,1-.22,1,.71.71,0,0,1-.64.35.69.69,0,0,1-.61-.36,1.89,1.89,0,0,1-.22-1,1.93,1.93,0,0,1,.21-1,.69.69,0,0,1,.62-.34.71.71,0,0,1,.63.36A1.85,1.85,0,0,1,23.63,271.5Zm-1.4,0a2,2,0,0,0,.13.82.43.43,0,0,0,.41.27q.57,0,.57-1.1a1.78,1.78,0,0,0-.15-.81.46.46,0,0,0-.42-.27.44.44,0,0,0-.41.27A1.93,1.93,0,0,0,22.22,271.5Zm3.15-1.28L23,274.52H22.7l2.39-4.3Zm.77,3a1.91,1.91,0,0,1-.22,1,.7.7,0,0,1-.63.35.69.69,0,0,1-.62-.36,2.4,2.4,0,0,1,0-2,.7.7,0,0,1,.63-.34.7.7,0,0,1,.63.35A1.85,1.85,0,0,1,26.13,273.23Zm-1.4,0a1.94,1.94,0,0,0,.13.82.44.44,0,0,0,.42.27q.57,0,.57-1.09t-.57-1.09a.44.44,0,0,0-.42.27A1.93,1.93,0,0,0,24.73,273.23Z" transform="translate(-6.87 -2)"/><path d="M8.47,292.18H8.14v-3.53q0-.48,0-1l-.1.1-1,.8-.19-.24,1.31-1h.28Z" transform="translate(-6.87 -2)"/><path d="M13.57,289.74a3.6,3.6,0,0,1-.39,1.89,1.3,1.3,0,0,1-1.18.61,1.28,1.28,0,0,1-1.15-.63,4.71,4.71,0,0,1,0-3.74,1.28,1.28,0,0,1,1.16-.61,1.3,1.3,0,0,1,1.17.63A3.48,3.48,0,0,1,13.57,289.74Zm-2.75,0a3.6,3.6,0,0,0,.29,1.66,1,1,0,0,0,1.81,0,3.71,3.71,0,0,0,.29-1.65,3.66,3.66,0,0,0-.29-1.63,1,1,0,0,0-.91-.56,1,1,0,0,0-.91.56A3.71,3.71,0,0,0,10.82,289.74Z" transform="translate(-6.87 -2)"/><path d="M15.5,292a2.47,2.47,0,0,0,.54-.05v.26a1.72,1.72,0,0,1-.55.08.9.9,0,0,1-.7-.25,1.19,1.19,0,0,1-.23-.8v-2.32H14v-.19l.53-.15.17-.81h.17v.87H16v.29H14.9v2.28a1,1,0,0,0,.15.61A.53.53,0,0,0,15.5,292Z" transform="translate(-6.87 -2)"/><path d="M19.33,292.18v-2.33a1.14,1.14,0,0,0-.23-.79.92.92,0,0,0-.71-.25,1.23,1.23,0,0,0-.94.33,1.54,1.54,0,0,0-.3,1.06v2h-.33V287h.33v1.64l0,.46h0a1.21,1.21,0,0,1,.51-.47,1.79,1.79,0,0,1,.76-.15q1.22,0,1.22,1.31v2.35Z" transform="translate(-6.87 -2)"/><path d="M21.87,293.4a1.2,1.2,0,0,1-.5-.09V293a2,2,0,0,0,.49.07q.8,0,.8-.87v-4.87H23v4.84Q23,293.4,21.87,293.4Z" transform="translate(-6.87 -2)"/><path d="M26.44,292.18l-.08-.57h0a1.71,1.71,0,0,1-.56.49,1.48,1.48,0,0,1-.68.14,1.17,1.17,0,0,1-.82-.27,1,1,0,0,1-.29-.75.93.93,0,0,1,.44-.82,2.38,2.38,0,0,1,1.27-.31l.69,0v-.24a1.22,1.22,0,0,0-.21-.77.81.81,0,0,0-.67-.26,2.25,2.25,0,0,0-1,.28l-.12-.28a2.74,2.74,0,0,1,1.17-.28,1.17,1.17,0,0,1,.89.31,1.35,1.35,0,0,1,.29,1v2.39Zm-1.32-.23a1.15,1.15,0,0,0,1.24-1.25v-.35l-.63,0a2.36,2.36,0,0,0-1.08.24.68.68,0,0,0-.32.62.67.67,0,0,0,.21.52A.84.84,0,0,0,25.12,291.94Z" transform="translate(-6.87 -2)"/><path d="M30.36,292.18v-2.33a1.14,1.14,0,0,0-.23-.79.92.92,0,0,0-.71-.25,1.23,1.23,0,0,0-.94.33,1.54,1.54,0,0,0-.3,1.06v2h-.33v-3.6h.28l.06.49h0a1.35,1.35,0,0,1,1.25-.56q1.22,0,1.22,1.31v2.35Z" transform="translate(-6.87 -2)"/><path d="M35.27,292.18h-.32v-3.53q0-.48,0-1l-.1.1-1,.8-.19-.24,1.31-1h.28Z" transform="translate(-6.87 -2)"/><path d="M37.41,289q0-.32.27-.32t.27.32a.34.34,0,0,1-.08.25.27.27,0,0,1-.19.08.26.26,0,0,1-.19-.08A.35.35,0,0,1,37.41,289Zm0,3q0-.33.27-.33t.27.33q0,.32-.27.32T37.41,291.92Z" transform="translate(-6.87 -2)"/><path d="M42,289.74a3.6,3.6,0,0,1-.39,1.89,1.3,1.3,0,0,1-1.18.61,1.28,1.28,0,0,1-1.15-.63,4.71,4.71,0,0,1,0-3.74,1.28,1.28,0,0,1,1.16-.61,1.3,1.3,0,0,1,1.17.63A3.48,3.48,0,0,1,42,289.74Zm-2.75,0a3.6,3.6,0,0,0,.29,1.66,1,1,0,0,0,1.81,0,3.71,3.71,0,0,0,.29-1.65,3.66,3.66,0,0,0-.29-1.63,1,1,0,0,0-.91-.56,1,1,0,0,0-.91.56A3.71,3.71,0,0,0,39.23,289.74Z" transform="translate(-6.87 -2)"/><path d="M45.85,289.74a3.6,3.6,0,0,1-.39,1.89,1.3,1.3,0,0,1-1.18.61,1.28,1.28,0,0,1-1.15-.63,4.71,4.71,0,0,1,0-3.74,1.28,1.28,0,0,1,1.16-.61,1.3,1.3,0,0,1,1.17.63A3.48,3.48,0,0,1,45.85,289.74Zm-2.75,0a3.6,3.6,0,0,0,.29,1.66,1,1,0,0,0,1.81,0,3.71,3.71,0,0,0,.29-1.65,3.66,3.66,0,0,0-.29-1.63,1,1,0,0,0-.91-.56,1,1,0,0,0-.91.56A3.71,3.71,0,0,0,43.1,289.74Z" transform="translate(-6.87 -2)"/><path d="M48.37,292.24a1.32,1.32,0,0,1-1.21-.62h0v.28q0,.25,0,.54v1.37h-.33v-5.23h.28l.06.51h0a1.3,1.3,0,0,1,1.19-.58,1.34,1.34,0,0,1,1.11.48,2.19,2.19,0,0,1,.38,1.39,2.11,2.11,0,0,1-.4,1.38A1.35,1.35,0,0,1,48.37,292.24Zm0-.29a1,1,0,0,0,.86-.41,1.9,1.9,0,0,0,.3-1.15q0-1.59-1.15-1.59a1.15,1.15,0,0,0-.92.35,1.73,1.73,0,0,0-.29,1.13v.11a2,2,0,0,0,.28,1.21A1.1,1.1,0,0,0,48.36,292Z" transform="translate(-6.87 -2)"/><path d="M55.36,292.18v-2.36a1.18,1.18,0,0,0-.21-.77.78.78,0,0,0-.63-.24,1,1,0,0,0-.82.3,1.44,1.44,0,0,0-.27,1v2.11h-.33v-2.46q0-.91-.83-.91a1,1,0,0,0-.82.33,1.72,1.72,0,0,0-.26,1.05v2h-.33v-3.6h.27l.07.49h0a1,1,0,0,1,.42-.42,1.26,1.26,0,0,1,.61-.15,1,1,0,0,1,1.09.64h0a1.22,1.22,0,0,1,.47-.47,1.36,1.36,0,0,1,.67-.17,1.15,1.15,0,0,1,.88.31,1.43,1.43,0,0,1,.29,1v2.35Z" transform="translate(-6.87 -2)"/><path d="M119.75,292.18h-.32v-3.53q0-.48,0-1l-.1.1-1,.8-.19-.24,1.31-1h.28Z" transform="translate(-6.87 -2)"/><path d="M125.14,290.94h-.83v1.23H124v-1.23H121.5v-.22l2.4-3.41h.4v3.35h.83Zm-1.15-.29v-1.38q0-1,0-1.68h0q-.07.12-.41.62l-1.71,2.44Z" transform="translate(-6.87 -2)"/><path d="M126.78,292a2.47,2.47,0,0,0,.54-.05v.26a1.72,1.72,0,0,1-.55.08.9.9,0,0,1-.7-.25,1.19,1.19,0,0,1-.23-.8v-2.32h-.53v-.19l.53-.15.17-.81h.17v.87h1.06v.29h-1.06v2.28a1,1,0,0,0,.15.61A.53.53,0,0,0,126.78,292Z" transform="translate(-6.87 -2)"/><path d="M130.61,292.18v-2.33a1.14,1.14,0,0,0-.23-.79.92.92,0,0,0-.71-.25,1.23,1.23,0,0,0-.94.33,1.54,1.54,0,0,0-.3,1.06v2h-.33V287h.33v1.64l0,.46h0a1.21,1.21,0,0,1,.51-.47,1.79,1.79,0,0,1,.76-.15q1.22,0,1.22,1.31v2.35Z" transform="translate(-6.87 -2)"/><path d="M133.15,293.4a1.2,1.2,0,0,1-.5-.09V293a2,2,0,0,0,.49.07q.8,0,.8-.87v-4.87h.34v4.84Q134.29,293.4,133.15,293.4Z" transform="translate(-6.87 -2)"/><path d="M137.73,292.18l-.08-.57h0a1.71,1.71,0,0,1-.56.49,1.48,1.48,0,0,1-.68.14,1.17,1.17,0,0,1-.82-.27,1,1,0,0,1-.29-.75.93.93,0,0,1,.44-.82,2.38,2.38,0,0,1,1.27-.31l.69,0v-.24a1.22,1.22,0,0,0-.21-.77.81.81,0,0,0-.67-.26,2.25,2.25,0,0,0-1,.28l-.12-.28a2.74,2.74,0,0,1,1.17-.28,1.17,1.17,0,0,1,.89.31,1.35,1.35,0,0,1,.29,1v2.39Zm-1.32-.23a1.15,1.15,0,0,0,1.24-1.25v-.35l-.63,0a2.36,2.36,0,0,0-1.08.24.68.68,0,0,0-.32.62.67.67,0,0,0,.21.52A.84.84,0,0,0,136.4,291.94Z" transform="translate(-6.87 -2)"/><path d="M141.64,292.18v-2.33a1.14,1.14,0,0,0-.23-.79.92.92,0,0,0-.71-.25,1.23,1.23,0,0,0-.94.33,1.54,1.54,0,0,0-.3,1.06v2h-.33v-3.6h.28l.06.49h0a1.35,1.35,0,0,1,1.25-.56q1.22,0,1.22,1.31v2.35Z" transform="translate(-6.87 -2)"/><path d="M146.55,292.18h-.32v-3.53q0-.48,0-1l-.1.1-1,.8-.19-.24,1.31-1h.28Z" transform="translate(-6.87 -2)"/><path d="M148.7,289q0-.32.27-.32t.27.32a.34.34,0,0,1-.08.25.27.27,0,0,1-.19.08.26.26,0,0,1-.19-.08A.35.35,0,0,1,148.7,289Zm0,3q0-.33.27-.33t.27.33q0,.32-.27.32T148.7,291.92Z" transform="translate(-6.87 -2)"/><path d="M153.26,289.74a3.6,3.6,0,0,1-.39,1.89,1.3,1.3,0,0,1-1.18.61,1.28,1.28,0,0,1-1.15-.63,4.71,4.71,0,0,1,0-3.74,1.28,1.28,0,0,1,1.16-.61,1.3,1.3,0,0,1,1.17.63A3.48,3.48,0,0,1,153.26,289.74Zm-2.75,0a3.6,3.6,0,0,0,.29,1.66,1,1,0,0,0,1.81,0,3.71,3.71,0,0,0,.29-1.65,3.66,3.66,0,0,0-.29-1.63,1,1,0,0,0-.91-.56,1,1,0,0,0-.91.56A3.71,3.71,0,0,0,150.51,289.74Z" transform="translate(-6.87 -2)"/><path d="M157.13,289.74a3.6,3.6,0,0,1-.39,1.89,1.3,1.3,0,0,1-1.18.61,1.28,1.28,0,0,1-1.15-.63,4.71,4.71,0,0,1,0-3.74,1.28,1.28,0,0,1,1.16-.61,1.3,1.3,0,0,1,1.17.63A3.48,3.48,0,0,1,157.13,289.74Zm-2.75,0a3.6,3.6,0,0,0,.29,1.66,1,1,0,0,0,1.81,0,3.71,3.71,0,0,0,.29-1.65,3.66,3.66,0,0,0-.29-1.63,1,1,0,0,0-.91-.56,1,1,0,0,0-.91.56A3.71,3.71,0,0,0,154.38,289.74Z" transform="translate(-6.87 -2)"/><path d="M159.65,292.24a1.32,1.32,0,0,1-1.21-.62h0v.28q0,.25,0,.54v1.37h-.33v-5.23h.28l.06.51h0a1.3,1.3,0,0,1,1.19-.58,1.34,1.34,0,0,1,1.11.48,2.19,2.19,0,0,1,.38,1.39,2.11,2.11,0,0,1-.4,1.38A1.35,1.35,0,0,1,159.65,292.24Zm0-.29a1,1,0,0,0,.86-.41,1.9,1.9,0,0,0,.3-1.15q0-1.59-1.15-1.59a1.15,1.15,0,0,0-.92.35,1.73,1.73,0,0,0-.29,1.13v.11a2,2,0,0,0,.28,1.21A1.1,1.1,0,0,0,159.65,292Z" transform="translate(-6.87 -2)"/><path d="M166.64,292.18v-2.36a1.18,1.18,0,0,0-.21-.77.78.78,0,0,0-.63-.24,1,1,0,0,0-.82.3,1.44,1.44,0,0,0-.27,1v2.11h-.33v-2.46q0-.91-.83-.91a1,1,0,0,0-.82.33,1.72,1.72,0,0,0-.26,1.05v2h-.33v-3.6h.27l.07.49h0a1,1,0,0,1,.42-.42,1.26,1.26,0,0,1,.61-.15,1,1,0,0,1,1.09.64h0a1.22,1.22,0,0,1,.47-.47,1.36,1.36,0,0,1,.67-.17,1.15,1.15,0,0,1,.88.31,1.43,1.43,0,0,1,.29,1v2.35Z" transform="translate(-6.87 -2)"/><path d="M228.5,292.18h-.32v-3.53q0-.48,0-1l-.1.1-1,.8-.19-.24,1.31-1h.28Z" transform="translate(-6.87 -2)"/><path d="M232,287.25a1.5,1.5,0,0,1,1,.31,1.05,1.05,0,0,1,.38.85,1,1,0,0,1-.23.66,2.12,2.12,0,0,1-.76.53,2.28,2.28,0,0,1,.89.57,1.14,1.14,0,0,1,.26.75,1.19,1.19,0,0,1-.42,1,2,2,0,0,1-2.25,0,1.21,1.21,0,0,1-.39-1,1.15,1.15,0,0,1,.27-.76,2.12,2.12,0,0,1,.85-.56,2.06,2.06,0,0,1-.75-.53,1.06,1.06,0,0,1-.22-.67,1.08,1.08,0,0,1,.18-.61,1.14,1.14,0,0,1,.49-.41A1.7,1.7,0,0,1,232,287.25ZM230.85,291a.86.86,0,0,0,.31.71,1.33,1.33,0,0,0,.87.25,1.35,1.35,0,0,0,.87-.27.88.88,0,0,0,.33-.72.9.9,0,0,0-.26-.67,3,3,0,0,0-1-.54,2.26,2.26,0,0,0-.86.52A1,1,0,0,0,230.85,291Zm1.18-3.43a1.15,1.15,0,0,0-.75.23.77.77,0,0,0-.28.63.79.79,0,0,0,.1.41,1.08,1.08,0,0,0,.3.32,3.38,3.38,0,0,0,.66.34,2.09,2.09,0,0,0,.77-.46.86.86,0,0,0,.24-.61.77.77,0,0,0-.28-.63A1.16,1.16,0,0,0,232,287.55Z" transform="translate(-6.87 -2)"/><path d="M235.54,292a2.47,2.47,0,0,0,.54-.05v.26a1.72,1.72,0,0,1-.55.08.9.9,0,0,1-.7-.25,1.19,1.19,0,0,1-.23-.8v-2.32h-.53v-.19l.53-.15.17-.81h.17v.87H236v.29h-1.06v2.28a1,1,0,0,0,.15.61A.53.53,0,0,0,235.54,292Z" transform="translate(-6.87 -2)"/><path d="M239.37,292.18v-2.33a1.14,1.14,0,0,0-.23-.79.92.92,0,0,0-.71-.25,1.23,1.23,0,0,0-.94.33,1.54,1.54,0,0,0-.3,1.06v2h-.33V287h.33v1.64l0,.46h0a1.21,1.21,0,0,1,.51-.47,1.79,1.79,0,0,1,.76-.15q1.22,0,1.22,1.31v2.35Z" transform="translate(-6.87 -2)"/><path d="M241.91,293.4a1.2,1.2,0,0,1-.5-.09V293a2,2,0,0,0,.49.07q.8,0,.8-.87v-4.87H243v4.84Q243,293.4,241.91,293.4Z" transform="translate(-6.87 -2)"/><path d="M246.48,292.18l-.08-.57h0a1.71,1.71,0,0,1-.56.49,1.48,1.48,0,0,1-.68.14,1.17,1.17,0,0,1-.82-.27,1,1,0,0,1-.29-.75.93.93,0,0,1,.44-.82,2.38,2.38,0,0,1,1.27-.31l.69,0v-.24a1.22,1.22,0,0,0-.21-.77.81.81,0,0,0-.67-.26,2.25,2.25,0,0,0-1,.28l-.12-.28a2.74,2.74,0,0,1,1.17-.28,1.17,1.17,0,0,1,.89.31,1.35,1.35,0,0,1,.29,1v2.39Zm-1.32-.23a1.15,1.15,0,0,0,1.24-1.25v-.35l-.63,0a2.36,2.36,0,0,0-1.08.24.68.68,0,0,0-.32.62.67.67,0,0,0,.21.52A.84.84,0,0,0,245.15,291.94Z" transform="translate(-6.87 -2)"/><path d="M250.39,292.18v-2.33a1.14,1.14,0,0,0-.23-.79.92.92,0,0,0-.71-.25,1.23,1.23,0,0,0-.94.33,1.54,1.54,0,0,0-.3,1.06v2h-.33v-3.6h.28l.06.49h0a1.35,1.35,0,0,1,1.25-.56q1.22,0,1.22,1.31v2.35Z" transform="translate(-6.87 -2)"/><path d="M255.3,292.18H255v-3.53q0-.48,0-1l-.1.1-1,.8-.19-.24,1.31-1h.29Z" transform="translate(-6.87 -2)"/><path d="M257.45,289c0-.22.09-.32.26-.32s.27.11.27.32a.34.34,0,0,1-.08.25.27.27,0,0,1-.19.08.26.26,0,0,1-.19-.08A.35.35,0,0,1,257.45,289Zm0,3c0-.22.09-.33.26-.33s.27.11.27.33-.09.32-.27.32S257.45,292.13,257.45,291.92Z" transform="translate(-6.87 -2)"/><path d="M262,289.74a3.6,3.6,0,0,1-.39,1.89,1.3,1.3,0,0,1-1.18.61,1.27,1.27,0,0,1-1.15-.63,4.71,4.71,0,0,1,0-3.74,1.28,1.28,0,0,1,1.16-.61,1.3,1.3,0,0,1,1.17.63A3.49,3.49,0,0,1,262,289.74Zm-2.75,0a3.59,3.59,0,0,0,.29,1.66,1,1,0,0,0,1.81,0,3.71,3.71,0,0,0,.29-1.65,3.66,3.66,0,0,0-.29-1.63,1,1,0,0,0-.91-.56,1,1,0,0,0-.91.56A3.71,3.71,0,0,0,259.26,289.74Z" transform="translate(-6.87 -2)"/><path d="M265.89,289.74a3.6,3.6,0,0,1-.39,1.89,1.3,1.3,0,0,1-1.18.61,1.27,1.27,0,0,1-1.15-.63,4.71,4.71,0,0,1,0-3.74,1.28,1.28,0,0,1,1.16-.61,1.3,1.3,0,0,1,1.17.63A3.49,3.49,0,0,1,265.89,289.74Zm-2.75,0a3.59,3.59,0,0,0,.29,1.66,1,1,0,0,0,1.81,0,3.71,3.71,0,0,0,.29-1.65,3.66,3.66,0,0,0-.29-1.63,1,1,0,0,0-.91-.56,1,1,0,0,0-.91.56A3.71,3.71,0,0,0,263.13,289.74Z" transform="translate(-6.87 -2)"/><path d="M268.41,292.24a1.31,1.31,0,0,1-1.21-.62h0v.28c0,.16,0,.34,0,.54v1.37h-.33v-5.23h.28l.06.51h0a1.3,1.3,0,0,1,1.19-.58,1.34,1.34,0,0,1,1.11.48,2.19,2.19,0,0,1,.38,1.39,2.11,2.11,0,0,1-.4,1.38A1.35,1.35,0,0,1,268.41,292.24Zm0-.29a1,1,0,0,0,.86-.41,1.91,1.91,0,0,0,.3-1.15q0-1.59-1.15-1.59a1.15,1.15,0,0,0-.92.35,1.73,1.73,0,0,0-.29,1.13v.11a2,2,0,0,0,.28,1.21A1.1,1.1,0,0,0,268.4,292Z" transform="translate(-6.87 -2)"/><path d="M275.4,292.18v-2.36a1.18,1.18,0,0,0-.21-.77.78.78,0,0,0-.63-.24,1,1,0,0,0-.82.3,1.44,1.44,0,0,0-.26,1v2.11h-.33v-2.46q0-.91-.83-.91a1,1,0,0,0-.82.33,1.72,1.72,0,0,0-.26,1.05v2h-.33v-3.6h.27l.07.49h0a1,1,0,0,1,.42-.42,1.26,1.26,0,0,1,.61-.15,1,1,0,0,1,1.09.64h0a1.23,1.23,0,0,1,.47-.47,1.36,1.36,0,0,1,.67-.17,1.15,1.15,0,0,1,.88.31,1.43,1.43,0,0,1,.29,1v2.35Z" transform="translate(-6.87 -2)"/><path d="M338.62,292.18h-3v-.29l1.29-1.34a9.55,9.55,0,0,0,.76-.86,2.44,2.44,0,0,0,.32-.57,1.6,1.6,0,0,0,.1-.57.93.93,0,0,0-.28-.71,1,1,0,0,0-.74-.27,1.83,1.83,0,0,0-1.16.44l-.18-.23a2,2,0,0,1,1.34-.51,1.4,1.4,0,0,1,1,.34,1.21,1.21,0,0,1,.36.93,1.92,1.92,0,0,1-.24.93,5.44,5.44,0,0,1-.89,1.11L336,291.84h2.59Z" transform="translate(-6.87 -2)"/><path d="M342.33,288.47a1.08,1.08,0,0,1-.28.76,1.31,1.31,0,0,1-.76.39v0a1.49,1.49,0,0,1,.89.37,1.07,1.07,0,0,1,.3.8,1.27,1.27,0,0,1-.46,1.05,2.07,2.07,0,0,1-1.33.37,2.84,2.84,0,0,1-1.29-.28v-.33a2.7,2.7,0,0,0,.62.23,2.82,2.82,0,0,0,.65.08,1.73,1.73,0,0,0,1.1-.3,1,1,0,0,0,.37-.84.84.84,0,0,0-.37-.74,2,2,0,0,0-1.1-.26h-.52v-.32h.53a1.47,1.47,0,0,0,1-.29,1,1,0,0,0,.35-.78.81.81,0,0,0-.29-.65,1.12,1.12,0,0,0-.75-.24,2,2,0,0,0-.66.1,3,3,0,0,0-.67.35l-.16-.22a2.14,2.14,0,0,1,.68-.37,2.45,2.45,0,0,1,.8-.14,1.53,1.53,0,0,1,1,.32A1.12,1.12,0,0,1,342.33,288.47Z" transform="translate(-6.87 -2)"/><path d="M345,288.51a2.77,2.77,0,0,1,.49,0l-.06.31a1.89,1.89,0,0,0-.47-.06.91.91,0,0,0-.75.39,1.59,1.59,0,0,0-.29,1v2h-.33v-3.6h.28l0,.65h0a1.53,1.53,0,0,1,.47-.56A1.12,1.12,0,0,1,345,288.51Z" transform="translate(-6.87 -2)"/><path d="M347.52,288.51a1.5,1.5,0,0,1,.68.14,1.35,1.35,0,0,1,.51.49h0c0-.28,0-.55,0-.82V287H349v5.15h-.21l-.08-.55h0a1.33,1.33,0,0,1-1.18.62,1.41,1.41,0,0,1-1.14-.46,2,2,0,0,1-.39-1.35,2.26,2.26,0,0,1,.39-1.43A1.36,1.36,0,0,1,347.52,288.51Zm0,.3a1,1,0,0,0-.89.41,2.05,2.05,0,0,0-.3,1.2q0,1.53,1.19,1.53a1.08,1.08,0,0,0,.89-.35,1.88,1.88,0,0,0,.29-1.17v-.06a2,2,0,0,0-.28-1.2A1.07,1.07,0,0,0,347.52,288.81Z" transform="translate(-6.87 -2)"/><path d="M351.28,293.4a1.21,1.21,0,0,1-.5-.09V293a2,2,0,0,0,.49.07q.8,0,.8-.87v-4.87h.34v4.84Q352.42,293.4,351.28,293.4Z" transform="translate(-6.87 -2)"/><path d="M355.85,292.18l-.08-.57h0a1.7,1.7,0,0,1-.56.49,1.48,1.48,0,0,1-.68.14,1.17,1.17,0,0,1-.82-.27,1,1,0,0,1-.29-.75.93.93,0,0,1,.44-.82,2.38,2.38,0,0,1,1.27-.31l.69,0v-.24a1.22,1.22,0,0,0-.21-.77.81.81,0,0,0-.67-.26,2.25,2.25,0,0,0-1,.28l-.12-.28a2.74,2.74,0,0,1,1.17-.28,1.17,1.17,0,0,1,.89.31,1.35,1.35,0,0,1,.29,1v2.39Zm-1.32-.23a1.15,1.15,0,0,0,1.24-1.25v-.35l-.63,0a2.36,2.36,0,0,0-1.08.24.68.68,0,0,0-.32.62.67.67,0,0,0,.21.52A.84.84,0,0,0,354.53,291.94Z" transform="translate(-6.87 -2)"/><path d="M359.77,292.18v-2.33a1.14,1.14,0,0,0-.23-.79.92.92,0,0,0-.71-.25,1.23,1.23,0,0,0-.95.33,1.54,1.54,0,0,0-.3,1.06v2h-.33v-3.6h.28l.06.49h0a1.35,1.35,0,0,1,1.25-.56q1.23,0,1.23,1.31v2.35Z" transform="translate(-6.87 -2)"/><path d="M364.68,292.18h-.32v-3.53q0-.48,0-1l-.1.1-1,.8-.19-.24,1.31-1h.29Z" transform="translate(-6.87 -2)"/><path d="M366.83,289c0-.22.09-.32.26-.32s.27.11.27.32a.34.34,0,0,1-.08.25.27.27,0,0,1-.19.08.26.26,0,0,1-.19-.08A.35.35,0,0,1,366.83,289Zm0,3c0-.22.09-.33.26-.33s.27.11.27.33-.09.32-.27.32S366.83,292.13,366.83,291.92Z" transform="translate(-6.87 -2)"/><path d="M371.39,289.74a3.6,3.6,0,0,1-.39,1.89,1.3,1.3,0,0,1-1.18.61,1.27,1.27,0,0,1-1.15-.63,4.71,4.71,0,0,1,0-3.74,1.28,1.28,0,0,1,1.16-.61,1.3,1.3,0,0,1,1.17.63A3.49,3.49,0,0,1,371.39,289.74Zm-2.75,0a3.59,3.59,0,0,0,.29,1.66,1,1,0,0,0,1.81,0,3.71,3.71,0,0,0,.29-1.65,3.66,3.66,0,0,0-.29-1.63,1,1,0,0,0-.91-.56,1,1,0,0,0-.91.56A3.71,3.71,0,0,0,368.64,289.74Z" transform="translate(-6.87 -2)"/><path d="M375.26,289.74a3.6,3.6,0,0,1-.39,1.89,1.3,1.3,0,0,1-1.18.61,1.27,1.27,0,0,1-1.15-.63,4.71,4.71,0,0,1,0-3.74,1.28,1.28,0,0,1,1.16-.61,1.3,1.3,0,0,1,1.17.63A3.49,3.49,0,0,1,375.26,289.74Zm-2.75,0a3.59,3.59,0,0,0,.29,1.66,1,1,0,0,0,1.81,0,3.71,3.71,0,0,0,.29-1.65,3.66,3.66,0,0,0-.29-1.63,1,1,0,0,0-.91-.56,1,1,0,0,0-.91.56A3.71,3.71,0,0,0,372.51,289.74Z" transform="translate(-6.87 -2)"/><path d="M377.78,292.24a1.31,1.31,0,0,1-1.21-.62h0v.28c0,.16,0,.34,0,.54v1.37h-.33v-5.23h.28l.06.51h0a1.3,1.3,0,0,1,1.19-.58,1.34,1.34,0,0,1,1.11.48,2.19,2.19,0,0,1,.38,1.39,2.11,2.11,0,0,1-.4,1.38A1.35,1.35,0,0,1,377.78,292.24Zm0-.29a1,1,0,0,0,.86-.41,1.91,1.91,0,0,0,.3-1.15q0-1.59-1.15-1.59a1.15,1.15,0,0,0-.92.35,1.73,1.73,0,0,0-.29,1.13v.11a2,2,0,0,0,.28,1.21A1.1,1.1,0,0,0,377.78,292Z" transform="translate(-6.87 -2)"/><path d="M384.77,292.18v-2.36a1.18,1.18,0,0,0-.21-.77.78.78,0,0,0-.63-.24,1,1,0,0,0-.82.3,1.44,1.44,0,0,0-.26,1v2.11h-.33v-2.46q0-.91-.83-.91a1,1,0,0,0-.82.33,1.72,1.72,0,0,0-.26,1.05v2h-.33v-3.6h.27l.07.49h0a1,1,0,0,1,.42-.42,1.26,1.26,0,0,1,.61-.15,1,1,0,0,1,1.09.64h0a1.23,1.23,0,0,1,.47-.47,1.36,1.36,0,0,1,.67-.17,1.15,1.15,0,0,1,.88.31,1.43,1.43,0,0,1,.29,1v2.35Z" transform="translate(-6.87 -2)"/><path d="M447.16,292.18h-3v-.29l1.29-1.34a9.55,9.55,0,0,0,.76-.86,2.44,2.44,0,0,0,.32-.57,1.6,1.6,0,0,0,.1-.57.93.93,0,0,0-.28-.71,1,1,0,0,0-.74-.27,1.83,1.83,0,0,0-1.16.44l-.18-.23a2,2,0,0,1,1.34-.51,1.4,1.4,0,0,1,1,.34,1.21,1.21,0,0,1,.36.93,1.92,1.92,0,0,1-.24.93,5.44,5.44,0,0,1-.89,1.11l-1.24,1.27h2.59Z" transform="translate(-6.87 -2)"/><path d="M449.55,287.25a1.5,1.5,0,0,1,1,.31,1.05,1.05,0,0,1,.38.85,1,1,0,0,1-.23.66,2.12,2.12,0,0,1-.76.53,2.29,2.29,0,0,1,.89.57,1.15,1.15,0,0,1,.26.75,1.19,1.19,0,0,1-.42,1,2,2,0,0,1-2.25,0,1.21,1.21,0,0,1-.39-1,1.15,1.15,0,0,1,.28-.76,2.11,2.11,0,0,1,.85-.56,2.05,2.05,0,0,1-.75-.53,1.06,1.06,0,0,1-.22-.67,1.07,1.07,0,0,1,.18-.61,1.14,1.14,0,0,1,.49-.41A1.69,1.69,0,0,1,449.55,287.25ZM448.36,291a.86.86,0,0,0,.31.71,1.34,1.34,0,0,0,.87.25,1.35,1.35,0,0,0,.87-.27.88.88,0,0,0,.33-.72.9.9,0,0,0-.26-.67,3,3,0,0,0-1-.54,2.25,2.25,0,0,0-.86.52A1,1,0,0,0,448.36,291Zm1.18-3.43a1.15,1.15,0,0,0-.75.23.77.77,0,0,0-.28.63.79.79,0,0,0,.1.41,1.07,1.07,0,0,0,.3.32,3.37,3.37,0,0,0,.66.34,2.09,2.09,0,0,0,.77-.46.85.85,0,0,0,.24-.61.77.77,0,0,0-.28-.63A1.16,1.16,0,0,0,449.54,287.55Z" transform="translate(-6.87 -2)"/><path d="M453,292a2.47,2.47,0,0,0,.54-.05v.26a1.72,1.72,0,0,1-.55.08.89.89,0,0,1-.7-.25,1.18,1.18,0,0,1-.23-.8v-2.32h-.53v-.19l.53-.15.17-.81h.17v.87h1.06v.29h-1.06v2.28a1,1,0,0,0,.15.61A.53.53,0,0,0,453,292Z" transform="translate(-6.87 -2)"/><path d="M456.87,292.18v-2.33a1.14,1.14,0,0,0-.23-.79.92.92,0,0,0-.71-.25,1.23,1.23,0,0,0-.95.33,1.54,1.54,0,0,0-.3,1.06v2h-.33V287h.33v1.64l0,.46h0a1.21,1.21,0,0,1,.51-.47,1.79,1.79,0,0,1,.76-.15q1.23,0,1.23,1.31v2.35Z" transform="translate(-6.87 -2)"/><path d="M459.41,293.4a1.21,1.21,0,0,1-.5-.09V293a2,2,0,0,0,.49.07q.8,0,.8-.87v-4.87h.34v4.84Q460.54,293.4,459.41,293.4Z" transform="translate(-6.87 -2)"/><path d="M464,292.18l-.08-.57h0a1.7,1.7,0,0,1-.56.49,1.48,1.48,0,0,1-.68.14,1.17,1.17,0,0,1-.82-.27,1,1,0,0,1-.29-.75.93.93,0,0,1,.44-.82,2.38,2.38,0,0,1,1.27-.31l.69,0v-.24a1.22,1.22,0,0,0-.21-.77.81.81,0,0,0-.67-.26,2.25,2.25,0,0,0-1,.28l-.12-.28a2.74,2.74,0,0,1,1.17-.28,1.17,1.17,0,0,1,.89.31,1.35,1.35,0,0,1,.29,1v2.39Zm-1.32-.23a1.15,1.15,0,0,0,1.24-1.25v-.35l-.63,0a2.36,2.36,0,0,0-1.08.24.68.68,0,0,0-.32.62.67.67,0,0,0,.21.52A.84.84,0,0,0,462.66,291.94Z" transform="translate(-6.87 -2)"/><path d="M467.9,292.18v-2.33a1.14,1.14,0,0,0-.23-.79.92.92,0,0,0-.71-.25,1.23,1.23,0,0,0-.95.33,1.54,1.54,0,0,0-.3,1.06v2h-.33v-3.6h.28l.06.49h0a1.35,1.35,0,0,1,1.25-.56q1.23,0,1.23,1.31v2.35Z" transform="translate(-6.87 -2)"/><path d="M472.81,292.18h-.32v-3.53q0-.48,0-1l-.1.1-1,.8-.19-.24,1.31-1h.29Z" transform="translate(-6.87 -2)"/><path d="M475,289c0-.22.09-.32.26-.32s.27.11.27.32a.34.34,0,0,1-.08.25.27.27,0,0,1-.19.08.26.26,0,0,1-.19-.08A.35.35,0,0,1,475,289Zm0,3c0-.22.09-.33.26-.33s.27.11.27.33-.09.32-.27.32S475,292.13,475,291.92Z" transform="translate(-6.87 -2)"/><path d="M479.52,289.74a3.6,3.6,0,0,1-.39,1.89,1.3,1.3,0,0,1-1.18.61,1.27,1.27,0,0,1-1.15-.63,4.71,4.71,0,0,1,0-3.74,1.28,1.28,0,0,1,1.16-.61,1.3,1.3,0,0,1,1.17.63A3.49,3.49,0,0,1,479.52,289.74Zm-2.75,0a3.59,3.59,0,0,0,.29,1.66,1,1,0,0,0,1.81,0,3.71,3.71,0,0,0,.29-1.65,3.66,3.66,0,0,0-.29-1.63,1,1,0,0,0-.91-.56,1,1,0,0,0-.91.56A3.71,3.71,0,0,0,476.77,289.74Z" transform="translate(-6.87 -2)"/><path d="M483.39,289.74a3.6,3.6,0,0,1-.39,1.89,1.3,1.3,0,0,1-1.18.61,1.27,1.27,0,0,1-1.15-.63,4.71,4.71,0,0,1,0-3.74,1.28,1.28,0,0,1,1.16-.61,1.3,1.3,0,0,1,1.17.63A3.49,3.49,0,0,1,483.39,289.74Zm-2.75,0a3.59,3.59,0,0,0,.29,1.66,1,1,0,0,0,1.81,0,3.71,3.71,0,0,0,.29-1.65,3.66,3.66,0,0,0-.29-1.63,1,1,0,0,0-.91-.56,1,1,0,0,0-.91.56A3.71,3.71,0,0,0,480.64,289.74Z" transform="translate(-6.87 -2)"/><path d="M485.91,292.24a1.31,1.31,0,0,1-1.21-.62h0v.28c0,.16,0,.34,0,.54v1.37h-.33v-5.23h.28l.06.51h0a1.3,1.3,0,0,1,1.19-.58A1.34,1.34,0,0,1,487,289a2.19,2.19,0,0,1,.38,1.39,2.11,2.11,0,0,1-.4,1.38A1.35,1.35,0,0,1,485.91,292.24Zm0-.29a1,1,0,0,0,.86-.41,1.91,1.91,0,0,0,.3-1.15q0-1.59-1.15-1.59a1.15,1.15,0,0,0-.92.35,1.73,1.73,0,0,0-.29,1.13v.11a2,2,0,0,0,.28,1.21A1.1,1.1,0,0,0,485.91,292Z" transform="translate(-6.87 -2)"/><path d="M492.9,292.18v-2.36a1.18,1.18,0,0,0-.21-.77.78.78,0,0,0-.63-.24,1,1,0,0,0-.82.3,1.44,1.44,0,0,0-.26,1v2.11h-.33v-2.46q0-.91-.83-.91a1,1,0,0,0-.82.33,1.72,1.72,0,0,0-.26,1.05v2h-.33v-3.6h.27l.07.49h0a1,1,0,0,1,.42-.42,1.26,1.26,0,0,1,.61-.15,1,1,0,0,1,1.09.64h0a1.23,1.23,0,0,1,.47-.47,1.36,1.36,0,0,1,.67-.17,1.15,1.15,0,0,1,.88.31,1.43,1.43,0,0,1,.29,1v2.35Z" transform="translate(-6.87 -2)"/></svg>