<svg xmlns="http://www.w3.org/2000/svg" viewBox="0 0 200 200"><title>checkin101-remind</title><rect x="90.88" y="43.7" width="5.17" height="14.25" rx="0.82" ry="0.82" style="fill:#d8d8d8"/><path d="M.28,44H4.89a.27.27,0,0,1,.27.27V58a.27.27,0,0,1-.27.27H.27A.27.27,0,0,1,0,58V44.25A.28.28,0,0,1,.28,44Z" style="fill:#d8d8d8"/><rect y="26.95" width="5.17" height="7.33" rx="0.27" ry="0.27" style="fill:#d8d8d8"/><rect y="61.55" width="5.17" height="13.98" rx="0.27" ry="0.27" style="fill:#d8d8d8"/><rect x="0.89" y="2" width="94.17" height="196" rx="14.2" ry="14.2" style="fill:#d8d8d8"/><path d="M16.22,3.49H79.71A13.87,13.87,0,0,1,93.59,17.36V182.64a13.87,13.87,0,0,1-13.87,13.87H16.22A13.87,13.87,0,0,1,2.34,182.64V17.36A13.88,13.88,0,0,1,16.22,3.49Z" style="fill:#ededed"/><path d="M16.22,3.49H79.71A13.87,13.87,0,0,1,93.59,17.36V182.64a13.87,13.87,0,0,1-13.87,13.87H16.22A13.87,13.87,0,0,1,2.34,182.64V17.36A13.88,13.88,0,0,1,16.22,3.49Z" style="fill:#ededed"/><rect x="6.51" y="26" width="83.36" height="147.31" rx="1.37" ry="1.37" style="fill:#404041"/><path d="M48.18,192a7.21,7.21,0,1,1,7.21-7.21A7.22,7.22,0,0,1,48.18,192Zm0-13.87a6.66,6.66,0,1,0,6.66,6.66A6.67,6.67,0,0,0,48.18,178.1Z" style="fill:#d8d8d8"/><rect x="40.12" y="13.04" width="16.01" height="2.78" rx="0.82" ry="0.82" style="fill:#6d6e70"/><circle cx="32.87" cy="14.44" r="1.68" style="fill:#6d6e70"/><circle cx="48.17" cy="8.32" r="1.21" style="fill:#6d6e70"/><path d="M6.51,27.56H89.86a0,0,0,0,1,0,0V172a1.29,1.29,0,0,1-1.29,1.29H7.79A1.29,1.29,0,0,1,6.51,172V27.56a0,0,0,0,1,0,0Z" style="fill:#347ba8"/><path d="M80,26H88.3a1.56,1.56,0,0,1,1.56,1.56v0a0,0,0,0,1,0,0H80a0,0,0,0,1,0,0V26A0,0,0,0,1,80,26Z" style="fill:#e55d33"/><rect x="70.23" y="26" width="9.81" height="1.56" style="fill:#e55d33"/><rect x="60.42" y="26" width="9.81" height="1.56" style="fill:#e47e25"/><rect x="50.6" y="26" width="9.81" height="1.56" style="fill:#fcb415"/><rect x="40.79" y="26" width="9.81" height="1.56" style="fill:#6cbd45"/><rect x="30.97" y="26" width="9.81" height="1.56" style="fill:#5fa8dc"/><rect x="21.16" y="26" width="9.81" height="1.56" style="fill:#945ba4"/><path d="M8.06,26h13.1a0,0,0,0,1,0,0v1.56a0,0,0,0,1,0,0H6.51a0,0,0,0,1,0,0v0A1.56,1.56,0,0,1,8.06,26Z" style="fill:#626567"/><path d="M47.74,40.76l-.16.52h.53a4.51,4.51,0,0,1,.16-.52h-.53Z" style="fill:#fafafa"/><path d="M51.41,43.66a3.4,3.4,0,0,0,.85-2.57,4.26,4.26,0,0,0-8.51,0c0,4,4.88,5.42,6.13,5.42h.24a1.68,1.68,0,0,0,1-.2c.4-.24.24-.72.12-1a1.84,1.84,0,0,1-.2-.93A1.26,1.26,0,0,1,51.41,43.66ZM50,40.12l-.12.4c-.08.24-.12.24-.53.24H49.1l-.12.48h.53s.08,0,.08.12v0l-.12.4c-.08.24-.12.24-.53.24h-.23l-.08.24c-.2.68-.16.77-.45.77h-.4a.13.13,0,0,1-.12-.12,3.31,3.31,0,0,1,.2-.8l0,0h-.53c-.29.88-.2,1-.53,1H46.4a.13.13,0,0,1-.12-.12,3.34,3.34,0,0,1,.24-.85H46S46,42,46,42a.63.63,0,0,1,0-.24c.08-.28.12-.4.29-.4h.45a2.88,2.88,0,0,1,.16-.52.93.93,0,0,1-.4,0h-.08s-.08,0-.08-.12a.63.63,0,0,1,0-.24c.08-.28.12-.4.29-.4h.48a6.93,6.93,0,0,0,.24-.72c0-.16.16-.16.45-.16s.32,0,.32.12v.08s-.12.48-.16.64h.56l.2-.68c0-.16.16-.16.45-.16s.32,0,.32.12v.08s-.12.48-.16.64a1.53,1.53,0,0,1,.56,0s.07,0,.07.13Z" style="fill:#fafafa"/><rect x="18.26" y="62.33" width="60.02" height="5.56" rx="1" ry="1" style="fill:#fafafa"/><rect x="31.04" y="72.44" width="34.45" height="5.56" rx="1" ry="1" style="fill:#fafafa"/><rect x="39.93" y="129.89" width="16.67" height="7.78" rx="2" ry="2" style="fill:#fafafa"/><rect x="17.15" y="110.57" width="62.24" height="4" rx="1" ry="1" style="fill:#fafafa"/><rect x="17.15" y="110.57" width="46.6" height="4" rx="1" ry="1" style="fill:#55acee"/><path d="M48.32,101.53a3.86,3.86,0,0,1-1.54-.31,3.92,3.92,0,0,1-2.1-2.1,4,4,0,0,1,0-3.07,3.93,3.93,0,0,1,2.1-2.1,4,4,0,0,1,3.07,0A3.93,3.93,0,0,1,52,96a4,4,0,0,1,0,3.07,3.92,3.92,0,0,1-2.1,2.1A3.86,3.86,0,0,1,48.32,101.53Zm0-7.15a3.15,3.15,0,0,0-1.25.25,3.19,3.19,0,0,0-1.71,1.71,3.24,3.24,0,0,0,0,2.5,3.19,3.19,0,0,0,1.71,1.71,3.24,3.24,0,0,0,2.5,0,3.19,3.19,0,0,0,1.71-1.71,3.24,3.24,0,0,0,0-2.5,3.19,3.19,0,0,0-1.71-1.71A3.15,3.15,0,0,0,48.32,94.37Zm0,3.88a4.72,4.72,0,0,1-.66,0,5.79,5.79,0,0,1-.64-.13,4.41,4.41,0,0,1-.6-.2,5.1,5.1,0,0,1-.56-.28,2.7,2.7,0,0,0,.25,1,2.76,2.76,0,0,0,.54.78,2.47,2.47,0,0,0,.76.52,2.3,2.3,0,0,0,1.83,0,2.48,2.48,0,0,0,.76-.52,2.78,2.78,0,0,0,.54-.78,2.7,2.7,0,0,0,.25-1,5.15,5.15,0,0,1-.56.28,4.38,4.38,0,0,1-.6.2,5.81,5.81,0,0,1-.64.13A4.72,4.72,0,0,1,48.32,98.25Zm-2-1.9a.93.93,0,0,0,.14.52.39.39,0,0,0,.7,0,1,1,0,0,0,0-1,.39.39,0,0,0-.7,0A.93.93,0,0,0,46.34,96.35Zm3,0a.93.93,0,0,0,.14.52.39.39,0,0,0,.7,0,1,1,0,0,0,0-1,.39.39,0,0,0-.7,0A.93.93,0,0,0,49.3,96.35Z" style="fill:#fafafa"/><rect x="60.42" y="109.79" width="6.67" height="5.56" rx="1" ry="1" style="fill:#fafafa"/><rect x="103.42" y="2.32" width="95.66" height="25.15" style="fill:#fff;stroke:#ccc;stroke-miterlimit:10;stroke-width:0.75px"/><path d="M117.53,12.51l-.28.9h.9a7.73,7.73,0,0,1,.28-.9h-.9Z" style="fill:#5fa8dc"/><path d="M123.81,17.46a5.83,5.83,0,0,0,1.45-4.4,7.3,7.3,0,0,0-14.58,0c0,6.88,8.36,9.28,10.51,9.28h.41a2.88,2.88,0,0,0,1.73-.35c.69-.41.41-1.24.21-1.78a3.16,3.16,0,0,1-.35-1.58A2.15,2.15,0,0,1,123.81,17.46Zm-2.42-6.05-.21.69c-.14.41-.21.41-.9.41h-.41l-.21.82h.9c.08,0,.14.07.14.21v.07l-.21.69c-.14.41-.21.41-.9.41h-.39l-.14.41c-.35,1.17-.28,1.31-.76,1.31h-.69a.23.23,0,0,1-.21-.21,5.67,5.67,0,0,1,.35-1.37l.08-.07h-.9c-.49,1.51-.35,1.65-.9,1.65h-.76a.23.23,0,0,1-.21-.21,5.72,5.72,0,0,1,.41-1.45h-.83c-.08,0-.14-.07-.14-.21a1.08,1.08,0,0,1,.08-.41c.14-.49.21-.69.49-.69h.76a4.92,4.92,0,0,1,.28-.9,1.59,1.59,0,0,1-.69-.07h-.14c-.08,0-.14-.07-.14-.21a1.08,1.08,0,0,1,.08-.41c.14-.49.21-.69.49-.69h.83a11.87,11.87,0,0,0,.41-1.24c.08-.27.28-.27.76-.27s.55.07.55.21V10c0,.06-.21.82-.28,1.1h1l.35-1.17c.08-.27.28-.27.76-.27s.55.07.55.21V10c0,.06-.21.82-.28,1.1a2.62,2.62,0,0,1,1,.07c.05,0,.11,0,.11.22Z" style="fill:#5fa8dc"/><rect x="133.59" y="7.56" width="54.54" height="5.05" rx="1" ry="1" style="fill:#ccc"/><rect x="133.59" y="16.97" width="31.84" height="5.05" rx="1" ry="1" style="fill:#ccc"/><rect x="103.42" y="33.61" width="95.66" height="25.15" style="fill:#fff;stroke:#ccc;stroke-miterlimit:10;stroke-width:0.75px"/><path d="M117.53,43.8l-.28.9h.9a7.73,7.73,0,0,1,.28-.9h-.9Z" style="fill:#5fa8dc"/><path d="M123.81,48.75a5.83,5.83,0,0,0,1.45-4.4,7.3,7.3,0,0,0-14.58,0c0,6.88,8.36,9.28,10.51,9.28h.41a2.88,2.88,0,0,0,1.73-.35c.69-.41.41-1.24.21-1.78a3.16,3.16,0,0,1-.35-1.58A2.15,2.15,0,0,1,123.81,48.75Zm-2.42-6.05-.21.69c-.14.41-.21.41-.9.41h-.41l-.21.82h.9c.08,0,.14.07.14.21v.07l-.21.69c-.14.41-.21.41-.9.41h-.39l-.14.41c-.35,1.17-.28,1.31-.76,1.31h-.69a.23.23,0,0,1-.21-.21,5.67,5.67,0,0,1,.35-1.37l.08-.07h-.9c-.49,1.51-.35,1.65-.9,1.65h-.76a.23.23,0,0,1-.21-.21,5.72,5.72,0,0,1,.41-1.45h-.83c-.08,0-.14-.07-.14-.21a1.08,1.08,0,0,1,.08-.41c.14-.49.21-.69.49-.69h.76a4.92,4.92,0,0,1,.28-.9,1.59,1.59,0,0,1-.69-.07h-.14c-.08,0-.14-.07-.14-.21a1.08,1.08,0,0,1,.08-.41c.14-.49.21-.69.49-.69h.83a11.87,11.87,0,0,0,.41-1.24c.08-.27.28-.27.76-.27s.55.07.55.21v.14c0,.06-.21.82-.28,1.1h1l.35-1.17c.08-.27.28-.27.76-.27s.55.07.55.21v.14c0,.06-.21.82-.28,1.1a2.62,2.62,0,0,1,1,.07c.05,0,.11,0,.11.22Z" style="fill:#5fa8dc"/><rect x="133.59" y="38.85" width="54.54" height="5.05" rx="1" ry="1" style="fill:#ccc"/><rect x="133.59" y="48.26" width="31.84" height="5.05" rx="1" ry="1" style="fill:#ccc"/><rect x="103.42" y="65.83" width="95.66" height="25.15" style="fill:#fff;stroke:#ccc;stroke-miterlimit:10;stroke-width:0.75px"/><path d="M117.53,76l-.28.9h.9a7.73,7.73,0,0,1,.28-.9h-.9Z" style="fill:#5fa8dc"/><path d="M123.81,81a5.83,5.83,0,0,0,1.45-4.4,7.3,7.3,0,0,0-14.58,0c0,6.88,8.36,9.28,10.51,9.28h.41a2.88,2.88,0,0,0,1.73-.35c.69-.41.41-1.24.21-1.78a3.16,3.16,0,0,1-.35-1.58A2.15,2.15,0,0,1,123.81,81Zm-2.42-6.05-.21.69c-.14.41-.21.41-.9.41h-.41l-.21.82h.9c.08,0,.14.07.14.21v.07l-.21.69c-.14.41-.21.41-.9.41h-.39l-.14.41c-.35,1.17-.28,1.31-.76,1.31h-.69a.23.23,0,0,1-.21-.21,5.67,5.67,0,0,1,.35-1.37l.08-.07h-.9c-.49,1.51-.35,1.65-.9,1.65h-.76a.23.23,0,0,1-.21-.21,5.72,5.72,0,0,1,.41-1.45h-.83c-.08,0-.14-.07-.14-.21a1.08,1.08,0,0,1,.08-.41c.14-.49.21-.69.49-.69h.76a4.92,4.92,0,0,1,.28-.9,1.59,1.59,0,0,1-.69-.07h-.14c-.08,0-.14-.07-.14-.21a1.08,1.08,0,0,1,.08-.41c.14-.49.21-.69.49-.69h.83a11.87,11.87,0,0,0,.41-1.24c.08-.27.28-.27.76-.27s.55.07.55.21v.14c0,.06-.21.82-.28,1.1h1l.35-1.17c.08-.27.28-.27.76-.27s.55.07.55.21v.14c0,.06-.21.82-.28,1.1a2.62,2.62,0,0,1,1,.07c.05,0,.11,0,.11.22Z" style="fill:#5fa8dc"/><rect x="133.59" y="71.08" width="54.54" height="5.05" rx="1" ry="1" style="fill:#ccc"/><rect x="133.59" y="80.48" width="31.84" height="5.05" rx="1" ry="1" style="fill:#ccc"/></svg>