<svg xmlns="http://www.w3.org/2000/svg" viewBox="0 0 200 200"><title>checkin101-gauge</title><rect x="18.75" y="66.56" width="169.36" height="32.84" style="fill:#fff"/><path d="M109.06,89.73c3.61-5.25,6.81-6.55,9.1-6.73,3.71-.3,5,2.33,8.82,1.8,3.4-.47,3.48-2.71,9.2-5.79,3-1.61,5.46-2.94,8.73-2.85,3.68.11,6.4,2,8.73,3.6,5.77,4,6.19,7.52,9.1,7.87,2,.24,5-1.08,9.2-7.87" style="fill:none;stroke:#5ca8dc;stroke-miterlimit:10"/><rect x="18.75" y="66.56" width="1.49" height="32.84" style="fill:#6fb84c"/><rect x="24.39" y="72.06" width="42.22" height="5.44" rx="1" ry="1" style="fill:#8b93a3;opacity:0.5"/><rect x="24.39" y="87.11" width="42.22" height="2.99" rx="1" ry="1" style="fill:#6fb84c"/><rect x="24.39" y="92.49" width="60.69" height="2.99" rx="1" ry="1" style="fill:#8b93a3;opacity:0.5"/><circle cx="171.73" cy="79.99" r="1.49" style="fill:#6fb84c"/><circle cx="162.77" cy="87.46" r="1.49" style="fill:#6fb84c"/><circle cx="153.82" cy="79.99" r="1.49" style="fill:#6fb84c"/><circle cx="144.86" cy="76.27" r="1.49" style="fill:#6fb84c"/><circle cx="135.91" cy="78.99" r="1.49" style="fill:#6fb84c"/><circle cx="126.95" cy="84.47" r="1.49" style="fill:#6fb84c"/><circle cx="118" cy="82.98" r="1.49" style="fill:#6fb84c"/><circle cx="109.04" cy="90.09" r="1.49" style="fill:#6fb84c"/><rect x="18.75" y="109.03" width="169.36" height="32.84" style="fill:#fff"/><path d="M109.06,132.2c3.61-5.25,6.81-6.55,9.1-6.73,3.71-.3,5,2.33,8.82,1.8,3.4-.47,3.48-2.71,9.2-5.79,3-1.61,5.46-2.94,8.73-2.85,3.68.11,6.4,2,8.73,3.6,5.77,4,6.19,7.52,9.1,7.87,2,.24,5-1.08,9.2-7.87" style="fill:none;stroke:#5ca8dc;stroke-miterlimit:10"/><rect x="18.75" y="109.03" width="1.49" height="32.84" style="fill:#df7c5f"/><rect x="24.39" y="114.53" width="42.22" height="5.44" rx="1" ry="1" style="fill:#8b93a3;opacity:0.5"/><rect x="24.39" y="129.58" width="42.22" height="2.99" rx="1" ry="1" style="fill:#df7c5f"/><rect x="24.39" y="134.96" width="60.69" height="2.99" rx="1" ry="1" style="fill:#8b93a3;opacity:0.5"/><circle cx="171.73" cy="122.47" r="1.49" style="fill:#df7c5f"/><circle cx="162.77" cy="129.93" r="1.49" style="fill:#df7c5f"/><circle cx="153.82" cy="122.47" r="1.49" style="fill:#df7c5f"/><circle cx="144.86" cy="118.74" r="1.49" style="fill:#df7c5f"/><circle cx="135.91" cy="121.46" r="1.49" style="fill:#df7c5f"/><circle cx="126.95" cy="126.94" r="1.49" style="fill:#df7c5f"/><circle cx="118" cy="125.45" r="1.49" style="fill:#df7c5f"/><circle cx="109.04" cy="132.56" r="1.49" style="fill:#df7c5f"/><rect x="18.75" y="149.79" width="169.36" height="32.84" style="fill:#fff"/><path d="M109.06,173c3.61-5.25,6.81-6.55,9.1-6.73,3.71-.3,5,2.33,8.82,1.8,3.4-.47,3.48-2.71,9.2-5.79,3-1.61,5.46-2.94,8.73-2.85,3.68.11,6.4,2,8.73,3.6,5.77,4,6.19,7.52,9.1,7.87,2,.24,5-1.08,9.2-7.87" style="fill:none;stroke:#5ca8dc;stroke-miterlimit:10"/><rect x="18.75" y="149.79" width="1.49" height="32.84" style="fill:#6fb84c"/><rect x="24.39" y="155.29" width="42.22" height="5.44" rx="1" ry="1" style="fill:#8b93a3;opacity:0.5"/><rect x="24.39" y="170.33" width="42.22" height="2.99" rx="1" ry="1" style="fill:#6fb84c"/><rect x="24.39" y="175.72" width="60.69" height="2.99" rx="1" ry="1" style="fill:#8b93a3;opacity:0.5"/><circle cx="171.73" cy="163.22" r="1.49" style="fill:#6fb84c"/><circle cx="162.77" cy="170.68" r="1.49" style="fill:#6fb84c"/><circle cx="153.82" cy="163.22" r="1.49" style="fill:#6fb84c"/><circle cx="144.86" cy="159.5" r="1.49" style="fill:#6fb84c"/><circle cx="135.91" cy="162.22" r="1.49" style="fill:#6fb84c"/><circle cx="126.95" cy="167.7" r="1.49" style="fill:#6fb84c"/><circle cx="118" cy="166.21" r="1.49" style="fill:#6fb84c"/><circle cx="109.04" cy="173.32" r="1.49" style="fill:#6fb84c"/><path d="M3.18,16.47c3.56-1.25,7.28-.26,14.72,1.72a76.2,76.2,0,0,1,14.87,5.95c5,2.43,5.48,3.05,15,8.3,11.34,6.23,13.29,6.82,15,7.2A32.66,32.66,0,0,0,78,39.32a35.45,35.45,0,0,0,15-8.77c10.8-10.33,10.5-21.74,14.25-21.76,6.07,0,8.91,30,15.5,30.06,5.14.08,7.18-18.08,14.72-18.63,5.8-.42,8.24,10.07,15.19,9.86,4.83-.14,5.12-5.26,14.09-10.49,3.47-2,3.44-1.27,15.19-5.64,12.4-4.61,12.85-5.61,15-5" style="fill:none;stroke:#5ca8dc;stroke-miterlimit:10"/><circle cx="197.01" cy="8.99" r="2.99" style="fill:#6cbd45"/><circle cx="182.09" cy="13.69" r="2.99" style="fill:#6cbd45"/><circle cx="167.16" cy="19.67" r="2.99" style="fill:#6cbd45"/><circle cx="152.24" cy="29.68" r="2.99" style="fill:#df7c5f"/><circle cx="137.31" cy="19.67" r="2.99" style="fill:#6cbd45"/><circle cx="122.39" cy="38.64" r="2.99" style="fill:#df7c5f"/><circle cx="107.46" cy="8.99" r="2.99" style="fill:#6cbd45"/><circle cx="92.54" cy="30.52" r="2.99" style="fill:#df7c5f"/><circle cx="77.61" cy="39.48" r="2.99" style="fill:#df7c5f"/><circle cx="62.69" cy="39.48" r="2.99" style="fill:#df7c5f"/><circle cx="47.76" cy="32.67" r="2.99" style="fill:#df7c5f"/><circle cx="32.84" cy="24.22" r="2.99" style="fill:#6cbd45"/><circle cx="17.91" cy="18.25" r="2.99" style="fill:#6cbd45"/><circle cx="2.99" cy="16.68" r="2.99" style="fill:#6cbd45"/></svg>