<svg xmlns="http://www.w3.org/2000/svg" viewBox="0 0 200 200"><title>checkin101-timeline</title><rect x="38.55" y="2.64" width="153.42" height="6.39" rx="1.6" ry="1.6" style="fill:#7c838e;opacity:0.5"/><rect x="38.55" y="12.37" width="31.86" height="6.39" rx="1.6" ry="1.6" style="fill:#7c838e;opacity:0.5"/><circle cx="19.62" cy="10.62" r="10.62" style="fill:#6fb84c"/><rect x="38.55" y="36.87" width="153.42" height="6.39" rx="1.6" ry="1.6" style="fill:#7c838e;opacity:0.5"/><rect x="38.55" y="46.61" width="95.92" height="6.39" rx="1.6" ry="1.6" style="fill:#7c838e;opacity:0.5"/><circle cx="19.62" cy="44.86" r="10.62" style="fill:#5fa8dc"/><rect x="38.55" y="72.54" width="153.42" height="6.39" rx="1.6" ry="1.6" style="fill:#7c838e;opacity:0.5"/><rect x="38.55" y="82.28" width="56.17" height="6.39" rx="1.6" ry="1.6" style="fill:#7c838e;opacity:0.5"/><circle cx="19.62" cy="80.53" r="10.62" style="fill:#6fb84c"/><rect x="38.55" y="111.25" width="153.42" height="6.39" rx="1.6" ry="1.6" style="fill:#7c838e;opacity:0.5"/><rect x="38.55" y="120.98" width="95.92" height="6.39" rx="1.6" ry="1.6" style="fill:#7c838e;opacity:0.5"/><circle cx="19.62" cy="119.23" r="10.62" style="fill:#6fb84c"/><rect x="38.55" y="147.23" width="153.42" height="6.39" rx="1.6" ry="1.6" style="fill:#7c838e;opacity:0.5"/><rect x="38.55" y="156.96" width="31.86" height="6.39" rx="1.6" ry="1.6" style="fill:#7c838e;opacity:0.5"/><circle cx="19.62" cy="155.21" r="10.62" style="fill:#fcb415"/><rect x="38.55" y="181.4" width="153.42" height="6.39" rx="1.6" ry="1.6" style="fill:#7c838e;opacity:0.5"/><rect x="38.55" y="191.13" width="56.17" height="6.39" rx="1.6" ry="1.6" style="fill:#7c838e;opacity:0.5"/><circle cx="19.62" cy="189.38" r="10.62" style="fill:#df7c5f"/></svg>