<svg xmlns="http://www.w3.org/2000/svg" viewBox="0 0 35 39"><title>checkin101-icon</title><path d="M16.43,15.38l-.66,2.16h2.17a18.57,18.57,0,0,1,.66-2.16H16.43Z" style="fill:#00c6a3"/><path d="M31.51,27.28C33,25.45,35,23.14,35,16.7,35,7.43,27.21,0,17.42,0,7.79,0,0,7.43,0,16.7,0,33.21,20.07,39,25.22,39h1a6.9,6.9,0,0,0,4.15-.84c1.66-1,1-3,.51-4.29A7.59,7.59,0,0,1,30,30.07,5.17,5.17,0,0,1,31.51,27.28ZM25.7,12.74l-.51,1.65c-.33,1-.51,1-2.17,1H22l-.51,2h2.17c.18,0,.33.18.33.51V18l-.51,1.65c-.33,1-.51,1-2.17,1H20.4l-.33,1c-.84,2.82-.66,3.15-1.84,3.15H16.58a.54.54,0,0,1-.51-.51,13.63,13.63,0,0,1,.84-3.3l.18-.18H14.93c-1.17,3.63-.84,4-2.17,4H10.92a.54.54,0,0,1-.51-.51,13.75,13.75,0,0,1,1-3.48h-2c-.18,0-.33-.18-.33-.51a2.59,2.59,0,0,1,.18-1c.33-1.17.51-1.65,1.17-1.65h1.84a11.83,11.83,0,0,1,.66-2.16,3.8,3.8,0,0,1-1.66-.18H11c-.18,0-.33-.18-.33-.51a2.59,2.59,0,0,1,.18-1c.33-1.17.51-1.65,1.17-1.65h2a28.53,28.53,0,0,0,1-3c.18-.66.66-.66,1.84-.66,1,0,1.32.18,1.32.51v.33c0,.15-.51,2-.66,2.64h2.32l.84-2.82c.18-.66.66-.66,1.84-.66,1,0,1.32.18,1.32.51v.33c0,.15-.51,2-.66,2.64a6.29,6.29,0,0,1,2.32.18c.12-.12.27,0,.27.54Z" style="fill:#00c6a3"/></svg>