<svg xmlns="http://www.w3.org/2000/svg" viewBox="0 0 493.96 304.03"><title>checkin101-stakeholders</title><path d="M11.76,8.74a2.37,2.37,0,0,1-.91,2,4,4,0,0,1-2.5.71,6,6,0,0,1-2.61-.5V9.48A7.1,7.1,0,0,0,7.1,10a5.81,5.81,0,0,0,1.35.17A2.14,2.14,0,0,0,9.8,9.78a1.13,1.13,0,0,0,.43-.93,1.17,1.17,0,0,0-.4-.9,6,6,0,0,0-1.65-.87A4.37,4.37,0,0,1,6.37,5.89a2.52,2.52,0,0,1-.53-1.61,2.25,2.25,0,0,1,.84-1.85,3.47,3.47,0,0,1,2.25-.68,6.6,6.6,0,0,1,2.69.59L11.13,3.6a5.89,5.89,0,0,0-2.24-.53,1.72,1.72,0,0,0-1.13.33,1.07,1.07,0,0,0-.39.86,1.21,1.21,0,0,0,.15.63A1.58,1.58,0,0,0,8,5.38,8.61,8.61,0,0,0,9.3,6a7,7,0,0,1,1.52.8,2.37,2.37,0,0,1,.71.84A2.53,2.53,0,0,1,11.76,8.74Z" transform="translate(-1.04 -1.74)" style="fill:#8c94a3"/><path d="M16.83,11.3H15.29V3.21H12.52V1.89H19.6V3.21H16.83Z" transform="translate(-1.04 -1.74)" style="fill:#8c94a3"/><path d="M26.88,11.3l-.94-2.61h-3.6l-.92,2.61H19.8l3.52-9.45H25l3.52,9.45ZM25.54,7.36,24.65,4.8q-.1-.26-.27-.81t-.24-.81a14.4,14.4,0,0,1-.51,1.73l-.85,2.45Z" transform="translate(-1.04 -1.74)" style="fill:#8c94a3"/><path d="M36.95,11.3H35.16L32.21,7l-.91.74V11.3H29.76V1.89H31.3V6.38q.63-.77,1.26-1.49l2.54-3h1.75Q34.38,4.78,33.31,6Z" transform="translate(-1.04 -1.74)" style="fill:#8c94a3"/><path d="M43.51,11.3H38.19V1.89h5.33v1.3H39.73V5.75h3.55V7H39.73v3h3.79Z" transform="translate(-1.04 -1.74)" style="fill:#8c94a3"/><path d="M53,11.3H51.43V7.06H47.09V11.3H45.55V1.89h1.54V5.74h4.34V1.89H53Z" transform="translate(-1.04 -1.74)" style="fill:#8c94a3"/><path d="M63.81,6.58a5.15,5.15,0,0,1-1.15,3.57,4.83,4.83,0,0,1-6.53,0A5.18,5.18,0,0,1,55,6.57,5.1,5.1,0,0,1,56.14,3a4.24,4.24,0,0,1,3.28-1.25A4.15,4.15,0,0,1,62.66,3,5.14,5.14,0,0,1,63.81,6.58Zm-7.19,0a4.22,4.22,0,0,0,.7,2.64,2.86,2.86,0,0,0,4.15,0,4.23,4.23,0,0,0,.7-2.65A4.24,4.24,0,0,0,61.48,4a2.45,2.45,0,0,0-2.06-.9,2.5,2.5,0,0,0-2.09.9A4.18,4.18,0,0,0,56.62,6.58Z" transform="translate(-1.04 -1.74)" style="fill:#8c94a3"/><path d="M65.83,11.3V1.89h1.54V10h4V11.3Z" transform="translate(-1.04 -1.74)" style="fill:#8c94a3"/><path d="M80.63,6.5a4.69,4.69,0,0,1-1.29,3.56,5.2,5.2,0,0,1-3.73,1.23H73V1.89h2.91a4.81,4.81,0,0,1,3.5,1.21A4.52,4.52,0,0,1,80.63,6.5ZM79,6.56q0-3.38-3.16-3.38H74.52V10h1.09Q79,10,79,6.56Z" transform="translate(-1.04 -1.74)" style="fill:#8c94a3"/><path d="M88,11.3H82.66V1.89H88v1.3H84.19V5.75h3.55V7H84.19v3H88Z" transform="translate(-1.04 -1.74)" style="fill:#8c94a3"/><path d="M91.55,7.54V11.3H90V1.89h2.66a4.37,4.37,0,0,1,2.7.68,2.45,2.45,0,0,1,.88,2.06,2.58,2.58,0,0,1-1.83,2.5l2.66,4.17H95.33L93.07,7.54Zm0-1.27h1.07a2.44,2.44,0,0,0,1.56-.4,1.45,1.45,0,0,0,.48-1.18,1.27,1.27,0,0,0-.52-1.15,2.86,2.86,0,0,0-1.57-.35h-1Z" transform="translate(-1.04 -1.74)" style="fill:#8c94a3"/><path d="M105.72,6.19h3.46v4.73a10,10,0,0,1-1.63.39,11.51,11.51,0,0,1-1.69.12,4.25,4.25,0,0,1-3.3-1.27,5.1,5.1,0,0,1-1.16-3.57A4.76,4.76,0,0,1,102.71,3a4.91,4.91,0,0,1,3.6-1.28,7,7,0,0,1,2.79.57l-.54,1.28a5.44,5.44,0,0,0-2.29-.53,3.09,3.09,0,0,0-2.38.95A3.66,3.66,0,0,0,103,6.61a3.86,3.86,0,0,0,.79,2.62,2.86,2.86,0,0,0,2.27.9,7.45,7.45,0,0,0,1.6-.19V7.51h-2Z" transform="translate(-1.04 -1.74)" style="fill:#8c94a3"/><path d="M113,7.54V11.3h-1.54V1.89h2.66a4.37,4.37,0,0,1,2.7.68,2.45,2.45,0,0,1,.88,2.06,2.58,2.58,0,0,1-1.83,2.5l2.66,4.17h-1.75L114.5,7.54Zm0-1.27h1.07a2.44,2.44,0,0,0,1.56-.4,1.45,1.45,0,0,0,.48-1.18,1.27,1.27,0,0,0-.52-1.15A2.86,2.86,0,0,0,114,3.19h-1Z" transform="translate(-1.04 -1.74)" style="fill:#8c94a3"/><path d="M128.23,6.58a5.15,5.15,0,0,1-1.15,3.57,4.83,4.83,0,0,1-6.53,0,5.18,5.18,0,0,1-1.14-3.6A5.1,5.1,0,0,1,120.56,3a4.24,4.24,0,0,1,3.28-1.25A4.15,4.15,0,0,1,127.08,3,5.14,5.14,0,0,1,128.23,6.58Zm-7.19,0a4.22,4.22,0,0,0,.7,2.64,2.86,2.86,0,0,0,4.15,0,4.23,4.23,0,0,0,.7-2.65A4.24,4.24,0,0,0,125.9,4a2.45,2.45,0,0,0-2.06-.9,2.5,2.5,0,0,0-2.09.9A4.18,4.18,0,0,0,121,6.58Z" transform="translate(-1.04 -1.74)" style="fill:#8c94a3"/><path d="M137.63,1.89V8a3.61,3.61,0,0,1-.45,1.83,3,3,0,0,1-1.29,1.2,4.5,4.5,0,0,1-2,.42,3.79,3.79,0,0,1-2.72-.93,3.36,3.36,0,0,1-1-2.55V1.89h1.54v6a2.38,2.38,0,0,0,.54,1.72,2.23,2.23,0,0,0,1.66.55q2.18,0,2.18-2.29V1.89Z" transform="translate(-1.04 -1.74)" style="fill:#8c94a3"/><path d="M146.27,4.73a2.74,2.74,0,0,1-1,2.26,4.25,4.25,0,0,1-2.75.79h-1V11.3H140V1.89h2.71a4.1,4.1,0,0,1,2.64.72A2.59,2.59,0,0,1,146.27,4.73Zm-4.69,1.75h.82a2.93,2.93,0,0,0,1.74-.41,1.5,1.5,0,0,0,.55-1.29,1.46,1.46,0,0,0-.5-1.21,2.45,2.45,0,0,0-1.55-.4h-1.07Z" transform="translate(-1.04 -1.74)" style="fill:#8c94a3"/><path d="M153.58,8.74a2.37,2.37,0,0,1-.91,2,4,4,0,0,1-2.5.71,6,6,0,0,1-2.61-.5V9.48a7.1,7.1,0,0,0,1.37.48,5.81,5.81,0,0,0,1.35.17,2.14,2.14,0,0,0,1.35-.35,1.13,1.13,0,0,0,.43-.93,1.17,1.17,0,0,0-.4-.9A6,6,0,0,0,150,7.08a4.37,4.37,0,0,1-1.82-1.19,2.52,2.52,0,0,1-.53-1.61,2.25,2.25,0,0,1,.84-1.85,3.47,3.47,0,0,1,2.25-.68,6.6,6.6,0,0,1,2.69.59l-.49,1.26a5.89,5.89,0,0,0-2.24-.53,1.72,1.72,0,0,0-1.13.33,1.07,1.07,0,0,0-.39.86,1.21,1.21,0,0,0,.15.63,1.58,1.58,0,0,0,.51.49,8.61,8.61,0,0,0,1.27.61,7,7,0,0,1,1.52.8,2.37,2.37,0,0,1,.71.84A2.53,2.53,0,0,1,153.58,8.74Z" transform="translate(-1.04 -1.74)" style="fill:#8c94a3"/><rect x="27.53" y="47.78" width="466.42" height="233.54" style="fill:#4b5e6f;opacity:0.05"/><g style="opacity:0.5"><line x1="27.21" y1="48.1" x2="27.21" y2="280.99" style="fill:none;stroke:#4b5f6f;stroke-miterlimit:10;stroke-width:0.49062846463778365px"/></g><g style="opacity:0.1"><line x1="260.75" y1="48.43" x2="260.75" y2="281.32" style="fill:none;stroke:#4b5f6f;stroke-miterlimit:10;stroke-width:0.49062846463778365px"/></g><g style="opacity:0.5"><line x1="493.63" y1="280.99" x2="27.53" y2="280.99" style="fill:none;stroke:#4b5f6f;stroke-miterlimit:10;stroke-width:0.49062846463778365px"/></g><g style="opacity:0.1"><line x1="493.63" y1="164.55" x2="27.53" y2="164.55" style="fill:none;stroke:#4b5f6f;stroke-miterlimit:10;stroke-width:0.49062846463778365px"/></g><g style="opacity:0.1"><line x1="493.63" y1="48.1" x2="27.53" y2="48.1" style="fill:none;stroke:#4b5f6f;stroke-miterlimit:10;stroke-width:0.49062846463778365px"/></g><path d="M244.07,304.2a1.38,1.38,0,0,1-.54,1.15,2.33,2.33,0,0,1-1.46.41,3.65,3.65,0,0,1-1.53-.26v-.63a4,4,0,0,0,.75.23,3.92,3.92,0,0,0,.8.08,1.63,1.63,0,0,0,1-.25.81.81,0,0,0,.33-.69.89.89,0,0,0-.12-.48,1.09,1.09,0,0,0-.39-.34,5.5,5.5,0,0,0-.83-.36,2.66,2.66,0,0,1-1.12-.66,1.46,1.46,0,0,1-.34-1,1.24,1.24,0,0,1,.49-1,2,2,0,0,1,1.29-.38,3.8,3.8,0,0,1,1.54.31l-.2.57a3.47,3.47,0,0,0-1.35-.29,1.31,1.31,0,0,0-.81.22.73.73,0,0,0-.29.62,1,1,0,0,0,.11.48,1,1,0,0,0,.36.34,4.55,4.55,0,0,0,.78.34,3.1,3.1,0,0,1,1.21.67A1.33,1.33,0,0,1,244.07,304.2Z" transform="translate(-1.04 -1.74)" style="fill:#4b5f6f"/><path d="M248.34,305.7h-3.12v-5.6h3.12v.58h-2.47v1.81h2.32v.58h-2.32v2.06h2.47Z" transform="translate(-1.04 -1.74)" style="fill:#4b5f6f"/><path d="M254,305.7h-.74l-3.06-4.7h0q.06.83.06,1.52v3.19h-.6v-5.6h.74l3.05,4.68h0q0-.1,0-.67c0-.37,0-.64,0-.8v-3.22H254Z" transform="translate(-1.04 -1.74)" style="fill:#4b5f6f"/><path d="M257.23,305.7h-.65v-5H254.8v-.58H259v.58h-1.77Z" transform="translate(-1.04 -1.74)" style="fill:#4b5f6f"/><path d="M259.85,305.7v-5.6h.65v5.6Z" transform="translate(-1.04 -1.74)" style="fill:#4b5f6f"/><path d="M264.52,305.7l-1.9-5h0q.05.59.05,1.4v3.56H262v-5.6h1l1.77,4.62h0l1.79-4.62h1v5.6h-.65v-3.61q0-.62.05-1.35h0l-1.92,5Z" transform="translate(-1.04 -1.74)" style="fill:#4b5f6f"/><path d="M272.25,305.7h-3.12v-5.6h3.12v.58h-2.47v1.81h2.32v.58h-2.32v2.06h2.47Z" transform="translate(-1.04 -1.74)" style="fill:#4b5f6f"/><path d="M277.87,305.7h-.74l-3.06-4.7h0q.06.83.06,1.52v3.19h-.6v-5.6h.74l3.05,4.68h0q0-.1,0-.67t0-.8v-3.22h.61Z" transform="translate(-1.04 -1.74)" style="fill:#4b5f6f"/><path d="M281.13,305.7h-.65v-5h-1.77v-.58h4.2v.58h-1.77Z" transform="translate(-1.04 -1.74)" style="fill:#4b5f6f"/><path d="M6.73,187.24v3.12H1.12v-3.12H1.7v2.47H3.51v-2.32h.57v2.32H6.14v-2.47Z" transform="translate(-1.04 -1.74)" style="fill:#4b5f6f"/><path d="M6.73,181.62v.74L2,185.43v0q.83-.06,1.52-.06H6.73v.6H1.12v-.74l4.68-3.06v0l-.67,0-.8,0H1.12v-.61Z" transform="translate(-1.04 -1.74)" style="fill:#4b5f6f"/><path d="M3.79,177.62v-1.91H6.52a6.14,6.14,0,0,1,.21.9,6.91,6.91,0,0,1,.07,1.07,2.58,2.58,0,0,1-.76,2,3,3,0,0,1-2.12.71A3.2,3.2,0,0,1,2.39,180a2.37,2.37,0,0,1-1-1A3.27,3.27,0,0,1,1,177.47a4.22,4.22,0,0,1,.33-1.67l.58.25a3.73,3.73,0,0,0-.32,1.46,2.09,2.09,0,0,0,.61,1.6,2.37,2.37,0,0,0,1.69.58,2.41,2.41,0,0,0,1.72-.55,2.13,2.13,0,0,0,.59-1.63,4.84,4.84,0,0,0-.13-1.14H4.37v1.25Z" transform="translate(-1.04 -1.74)" style="fill:#4b5f6f"/><path d="M6.73,170.84l-1.78.7v2.25l1.78.69v.66L1.1,172.92v-.55l5.63-2.2Zm-2.37.9-1.74.65q-.33.13-.81.26a7.2,7.2,0,0,1,.81.24l1.74.66Z" transform="translate(-1.04 -1.74)" style="fill:#4b5f6f"/><path d="M3.79,166.93V165H6.52a6.14,6.14,0,0,1,.21.9A6.91,6.91,0,0,1,6.8,167,2.58,2.58,0,0,1,6,169a3,3,0,0,1-2.12.71,3.2,3.2,0,0,1-1.53-.35,2.37,2.37,0,0,1-1-1A3.27,3.27,0,0,1,1,166.78a4.22,4.22,0,0,1,.33-1.67l.58.25a3.73,3.73,0,0,0-.32,1.46,2.09,2.09,0,0,0,.61,1.6,2.37,2.37,0,0,0,1.69.58,2.41,2.41,0,0,0,1.72-.55,2.13,2.13,0,0,0,.59-1.63,4.84,4.84,0,0,0-.13-1.14H4.37v1.25Z" transform="translate(-1.04 -1.74)" style="fill:#4b5f6f"/><path d="M6.73,160.56v3.12H1.12v-3.12H1.7V163H3.51v-2.32h.57V163H6.14v-2.47Z" transform="translate(-1.04 -1.74)" style="fill:#4b5f6f"/><path d="M6.73,156.84l-5,1.9v0q.59-.05,1.4-.05H6.73v.6H1.12v-1l4.62-1.77v0l-4.62-1.79v-1h5.6v.65H3.12q-.62,0-1.35-.05v0l5,1.92Z" transform="translate(-1.04 -1.74)" style="fill:#4b5f6f"/><path d="M6.73,149.11v3.12H1.12v-3.12H1.7v2.47H3.51v-2.32h.57v2.32H6.14v-2.47Z" transform="translate(-1.04 -1.74)" style="fill:#4b5f6f"/><path d="M6.73,143.49v.74L2,147.29v0q.83-.06,1.52-.06H6.73v.6H1.12v-.74l4.68-3.06v0l-.67,0-.8,0H1.12v-.61Z" transform="translate(-1.04 -1.74)" style="fill:#4b5f6f"/><path d="M6.73,140.22v.65h-5v1.77H1.12v-4.2H1.7v1.77Z" transform="translate(-1.04 -1.74)" style="fill:#4b5f6f"/><path d="M18.33,280.5a3.47,3.47,0,0,1-.38,1.82,1.25,1.25,0,0,1-1.14.59,1.23,1.23,0,0,1-1.11-.61,4.54,4.54,0,0,1,0-3.61,1.23,1.23,0,0,1,1.12-.59,1.25,1.25,0,0,1,1.12.61A3.36,3.36,0,0,1,18.33,280.5Zm-2.66,0a3.48,3.48,0,0,0,.28,1.61,1,1,0,0,0,1.74,0A3.58,3.58,0,0,0,18,280.5a3.53,3.53,0,0,0-.28-1.57.92.92,0,0,0-.88-.54.91.91,0,0,0-.87.54A3.58,3.58,0,0,0,15.67,280.5Z" transform="translate(-1.04 -1.74)" style="fill:#4b5f6f"/><path d="M20.89,279.57a2.06,2.06,0,0,1-.24,1.1A.77.77,0,0,1,20,281a.75.75,0,0,1-.67-.38,2.05,2.05,0,0,1-.24-1.09,2.09,2.09,0,0,1,.23-1.09.75.75,0,0,1,.68-.37.77.77,0,0,1,.69.38A2,2,0,0,1,20.89,279.57Zm-1.52,0a2.13,2.13,0,0,0,.14.89.47.47,0,0,0,.45.3q.62,0,.62-1.19a1.93,1.93,0,0,0-.16-.88.5.5,0,0,0-.46-.3.47.47,0,0,0-.45.3A2.09,2.09,0,0,0,19.37,279.57Zm3.41-1.39-2.59,4.67h-.31l2.59-4.67Zm.83,3.27a2.08,2.08,0,0,1-.24,1.1.76.76,0,0,1-.69.38.75.75,0,0,1-.67-.39,2.61,2.61,0,0,1,0-2.17.8.8,0,0,1,1.36,0A2,2,0,0,1,23.61,281.45Zm-1.52,0a2.11,2.11,0,0,0,.14.89.47.47,0,0,0,.45.3q.62,0,.62-1.18t-.62-1.18a.47.47,0,0,0-.45.29A2.09,2.09,0,0,0,22.09,281.45Z" transform="translate(-1.04 -1.74)" style="fill:#4b5f6f"/><path d="M31.55,292h-.31v-3.4q0-.46,0-1l-.1.09-1,.78-.18-.23,1.27-.95h.27Z" transform="translate(-1.04 -1.74)" style="fill:#4b5f6f"/><path d="M263.29,290.82h-.8V292h-.3v-1.19h-2.4v-.21l2.32-3.29h.39v3.23h.8Zm-1.11-.27v-1.34q0-1,0-1.62h0q-.06.12-.39.6l-1.65,2.35Z" transform="translate(-1.04 -1.74)" style="fill:#4b5f6f"/><path d="M492.29,292l1.92-4.36h-2.64v-.31h3v.23L492.66,292Z" transform="translate(-1.04 -1.74)" style="fill:#4b5f6f"/><path d="M14.81,166.22a1.77,1.77,0,0,1,1.18.36,1.23,1.23,0,0,1,.43,1,1.42,1.42,0,0,1-.45,1.12,1.79,1.79,0,0,1-1.23.4,3.07,3.07,0,0,1-.66-.07,1.73,1.73,0,0,1-.52-.2v-.33a3.06,3.06,0,0,0,.61.24,2.32,2.32,0,0,0,.57.07,1.44,1.44,0,0,0,1-.32,1.11,1.11,0,0,0,.37-.88,1,1,0,0,0-.36-.82,1.5,1.5,0,0,0-1-.3,3.26,3.26,0,0,0-.87.13l-.19-.12.19-2.14h2.25v.31H14.17L14,166.31A4.53,4.53,0,0,1,14.81,166.22Z" transform="translate(-1.04 -1.74)" style="fill:#4b5f6f"/><path d="M20.2,166.68a3.47,3.47,0,0,1-.38,1.82,1.26,1.26,0,0,1-1.14.59,1.23,1.23,0,0,1-1.11-.61,4.54,4.54,0,0,1,0-3.61,1.24,1.24,0,0,1,1.12-.59,1.25,1.25,0,0,1,1.12.61A3.36,3.36,0,0,1,20.2,166.68Zm-2.66,0a3.47,3.47,0,0,0,.28,1.6,1,1,0,0,0,1.74,0,3.58,3.58,0,0,0,.28-1.59,3.53,3.53,0,0,0-.28-1.57.92.92,0,0,0-.88-.54.91.91,0,0,0-.87.54A3.58,3.58,0,0,0,17.54,166.68Z" transform="translate(-1.04 -1.74)" style="fill:#4b5f6f"/><path d="M22.76,165.75a2.05,2.05,0,0,1-.24,1.1.77.77,0,0,1-.69.38.75.75,0,0,1-.67-.38,2.05,2.05,0,0,1-.24-1.09,2.09,2.09,0,0,1,.23-1.09.75.75,0,0,1,.68-.37.77.77,0,0,1,.69.38A2,2,0,0,1,22.76,165.75Zm-1.52,0a2.14,2.14,0,0,0,.14.89.47.47,0,0,0,.45.3q.62,0,.62-1.19a1.93,1.93,0,0,0-.16-.88.5.5,0,0,0-.46-.3.47.47,0,0,0-.45.3A2.09,2.09,0,0,0,21.23,165.75Zm3.41-1.39L22.06,169h-.31l2.59-4.67Zm.83,3.27a2.08,2.08,0,0,1-.24,1.1.76.76,0,0,1-.69.38.75.75,0,0,1-.67-.39,2.61,2.61,0,0,1,0-2.17.76.76,0,0,1,.68-.37.76.76,0,0,1,.68.38A2,2,0,0,1,25.48,167.63Zm-1.52,0a2.11,2.11,0,0,0,.14.89.47.47,0,0,0,.45.3q.62,0,.62-1.18t-.62-1.18a.47.47,0,0,0-.45.29A2.1,2.1,0,0,0,24,167.63Z" transform="translate(-1.04 -1.74)" style="fill:#4b5f6f"/><path d="M11.44,52.58h-.31v-3.4q0-.46,0-1l-.1.09-1,.78-.18-.23,1.27-.95h.27Z" transform="translate(-1.04 -1.74)" style="fill:#4b5f6f"/><path d="M16.37,50.24A3.47,3.47,0,0,1,16,52.06a1.26,1.26,0,0,1-1.14.59A1.23,1.23,0,0,1,13.74,52a4.54,4.54,0,0,1,0-3.61,1.24,1.24,0,0,1,1.12-.59,1.25,1.25,0,0,1,1.12.61A3.36,3.36,0,0,1,16.37,50.24Zm-2.66,0a3.47,3.47,0,0,0,.28,1.6,1,1,0,0,0,1.74,0A3.58,3.58,0,0,0,16,50.24a3.53,3.53,0,0,0-.28-1.57.92.92,0,0,0-.88-.54.91.91,0,0,0-.87.54A3.58,3.58,0,0,0,13.71,50.24Z" transform="translate(-1.04 -1.74)" style="fill:#4b5f6f"/><path d="M20.1,50.24a3.47,3.47,0,0,1-.38,1.82,1.26,1.26,0,0,1-1.14.59A1.23,1.23,0,0,1,17.48,52a4.54,4.54,0,0,1,0-3.61,1.24,1.24,0,0,1,1.12-.59,1.25,1.25,0,0,1,1.12.61A3.36,3.36,0,0,1,20.1,50.24Zm-2.66,0a3.47,3.47,0,0,0,.28,1.6,1,1,0,0,0,1.74,0,3.58,3.58,0,0,0,.28-1.59,3.53,3.53,0,0,0-.28-1.57.92.92,0,0,0-.88-.54.91.91,0,0,0-.87.54A3.58,3.58,0,0,0,17.44,50.24Z" transform="translate(-1.04 -1.74)" style="fill:#4b5f6f"/><path d="M22.66,49.31a2.05,2.05,0,0,1-.24,1.1.77.77,0,0,1-.69.38.75.75,0,0,1-.67-.38,2.05,2.05,0,0,1-.24-1.09,2.09,2.09,0,0,1,.23-1.09.75.75,0,0,1,.68-.37.77.77,0,0,1,.69.38A2,2,0,0,1,22.66,49.31Zm-1.52,0a2.14,2.14,0,0,0,.14.89.47.47,0,0,0,.45.3q.62,0,.62-1.19a1.93,1.93,0,0,0-.16-.88.5.5,0,0,0-.46-.3.47.47,0,0,0-.45.3A2.09,2.09,0,0,0,21.14,49.31Zm3.41-1.39L22,52.58h-.31l2.59-4.67Zm.83,3.27a2.08,2.08,0,0,1-.24,1.1.76.76,0,0,1-.69.38.75.75,0,0,1-.67-.39,2.61,2.61,0,0,1,0-2.17.76.76,0,0,1,.68-.37.76.76,0,0,1,.68.38A2,2,0,0,1,25.38,51.18Zm-1.52,0a2.11,2.11,0,0,0,.14.89.47.47,0,0,0,.45.3q.62,0,.62-1.18T24.45,50a.47.47,0,0,0-.45.29A2.1,2.1,0,0,0,23.86,51.18Z" transform="translate(-1.04 -1.74)" style="fill:#4b5f6f"/><circle cx="425.27" cy="81.79" r="25.19" style="fill:#6fb94c;fill-opacity:0.8;stroke:#6fb94c;stroke-miterlimit:10;stroke-width:0.800000011920929px"/><circle cx="360.51" cy="212.63" r="11.45" style="fill:#6fb94c;fill-opacity:0.8;stroke:#6fb94c;stroke-miterlimit:10;stroke-width:0.800000011920929px"/><circle cx="451.85" cy="167.97" r="26.79" style="fill:#6fb94c;fill-opacity:0.8;stroke:#6fb94c;stroke-miterlimit:10;stroke-width:0.800000011920929px"/><circle cx="362.51" cy="142.63" r="13.45" style="fill:#6fb94c;fill-opacity:0.8;stroke:#6fb94c;stroke-miterlimit:10;stroke-width:0.800000011920929px"/><circle cx="317.99" cy="124.31" r="7.52" style="fill:#fdb515;fill-opacity:0.8;stroke:#fdb515;stroke-miterlimit:10;stroke-width:0.800000011920929px"/><circle cx="255.99" cy="208.31" r="7.52" style="fill:#fdb515;fill-opacity:0.8;stroke:#fdb515;stroke-miterlimit:10;stroke-width:0.800000011920929px"/><circle cx="277.99" cy="93.31" r="7.52" style="fill:#fdb515;fill-opacity:0.8;stroke:#fdb515;stroke-miterlimit:10;stroke-width:0.800000011920929px"/><circle cx="189.95" cy="138.28" r="21.49" style="fill:#fdb515;fill-opacity:0.8;stroke:#fdb515;stroke-miterlimit:10;stroke-width:0.800000011920929px"/><circle cx="216.59" cy="231.6" r="10.14" style="fill:#fdb515;fill-opacity:0.8;stroke:#fdb515;stroke-miterlimit:10;stroke-width:0.800000011920929px"/><circle cx="243.6" cy="168.61" r="21.15" style="fill:#fdb515;fill-opacity:0.8;stroke:#fdb515;stroke-miterlimit:10;stroke-width:0.800000011920929px"/><circle cx="81.18" cy="231.6" r="18.64" style="fill:#e07c5f;fill-opacity:0.8;stroke:#e07c5f;stroke-miterlimit:10;stroke-width:0.800000011920929px"/><circle cx="64.44" cy="174.86" r="7.9" style="fill:#e07c5f;fill-opacity:0.8;stroke:#e07c5f;stroke-miterlimit:10;stroke-width:0.800000011920929px"/><path d="M220.46,37.1h-.38l-1.44-5q-.18-.62-.27-1-.07.39-.2.89t-1.44,5.17h-.38l-1.8-6.54H215l1.15,4.21.13.47.1.41.08.37c0,.12,0,.24.07.36q.11-.61.46-1.85l1.12-4h.51L220,35.12q.23.79.33,1.27.06-.32.15-.68t1.38-5.14h.46Z" transform="translate(-1.04 -1.74)" style="fill:#4b5e6f"/><path d="M225.27,37.19a2.12,2.12,0,0,1-1.65-.65,2.62,2.62,0,0,1-.59-1.83,2.85,2.85,0,0,1,.57-1.86,1.89,1.89,0,0,1,1.54-.7,1.67,1.67,0,0,1,1.35.6,2.48,2.48,0,0,1,.5,1.63v.36h-3.5a2.3,2.3,0,0,0,.47,1.53,1.64,1.64,0,0,0,1.31.53,4.09,4.09,0,0,0,.73-.06,4.42,4.42,0,0,0,.8-.25v.4a3.53,3.53,0,0,1-.76.24A4.21,4.21,0,0,1,225.27,37.19Zm-.13-4.65A1.46,1.46,0,0,0,224,33a2.19,2.19,0,0,0-.5,1.33h3a2.12,2.12,0,0,0-.37-1.32A1.21,1.21,0,0,0,225.14,32.54Z" transform="translate(-1.04 -1.74)" style="fill:#4b5e6f"/><path d="M230.3,37.19a2.12,2.12,0,0,1-1.65-.65,2.62,2.62,0,0,1-.59-1.83,2.85,2.85,0,0,1,.57-1.86,1.89,1.89,0,0,1,1.54-.7,1.67,1.67,0,0,1,1.35.6,2.48,2.48,0,0,1,.5,1.63v.36h-3.5a2.3,2.3,0,0,0,.47,1.53,1.64,1.64,0,0,0,1.31.53,4.09,4.09,0,0,0,.73-.06,4.42,4.42,0,0,0,.8-.25v.4a3.53,3.53,0,0,1-.76.24A4.21,4.21,0,0,1,230.3,37.19Zm-.13-4.65A1.46,1.46,0,0,0,229,33a2.19,2.19,0,0,0-.5,1.33h3a2.12,2.12,0,0,0-.37-1.32A1.21,1.21,0,0,0,230.17,32.54Z" transform="translate(-1.04 -1.74)" style="fill:#4b5e6f"/><path d="M233.8,35l2.48-2.73h.54l-1.91,2.07L237,37.1h-.53l-1.85-2.46-.8.72V37.1h-.44v-7h.44v3.49l0,1.34Z" transform="translate(-1.04 -1.74)" style="fill:#4b5e6f"/><path d="M242.41,37.1H242V32.34q0-.65.05-1.35l-.14.13-1.38,1.09-.25-.32L242,30.56h.38Z" transform="translate(-1.04 -1.74)" style="fill:#4b5e6f"/><path d="M249.18,37.1h-4.09v-.39l1.74-1.82a12.85,12.85,0,0,0,1-1.16,3.28,3.28,0,0,0,.43-.77,2.16,2.16,0,0,0,.14-.77,1.26,1.26,0,0,0-.38-1,1.39,1.39,0,0,0-1-.37,2.48,2.48,0,0,0-1.56.59l-.24-.31a2.75,2.75,0,0,1,1.82-.69,1.89,1.89,0,0,1,1.34.46,1.63,1.63,0,0,1,.49,1.26,2.6,2.6,0,0,1-.33,1.25,7.33,7.33,0,0,1-1.2,1.5l-1.68,1.72v0h3.5Z" transform="translate(-1.04 -1.74)" style="fill:#4b5e6f"/><path d="M256.79,37.1H252.7v-.39l1.74-1.82a13,13,0,0,0,1-1.16,3.32,3.32,0,0,0,.43-.77,2.15,2.15,0,0,0,.14-.77,1.26,1.26,0,0,0-.38-1,1.39,1.39,0,0,0-1-.37,2.48,2.48,0,0,0-1.57.59l-.24-.31a2.75,2.75,0,0,1,1.82-.69,1.89,1.89,0,0,1,1.34.46,1.63,1.63,0,0,1,.49,1.26,2.59,2.59,0,0,1-.33,1.25,7.35,7.35,0,0,1-1.2,1.5l-1.68,1.72v0h3.5Z" transform="translate(-1.04 -1.74)" style="fill:#4b5e6f"/><path d="M262.14,33.82a4.85,4.85,0,0,1-.53,2.55,1.76,1.76,0,0,1-1.59.83,1.72,1.72,0,0,1-1.56-.85,4.82,4.82,0,0,1-.53-2.52,4.86,4.86,0,0,1,.52-2.53,1.73,1.73,0,0,1,1.57-.82,1.75,1.75,0,0,1,1.57.85A4.71,4.71,0,0,1,262.14,33.82Zm-3.72,0a4.85,4.85,0,0,0,.4,2.25,1.38,1.38,0,0,0,2.44,0,5,5,0,0,0,.39-2.22,4.94,4.94,0,0,0-.39-2.2,1.29,1.29,0,0,0-1.23-.75,1.28,1.28,0,0,0-1.23.75A5,5,0,0,0,258.42,33.82Z" transform="translate(-1.04 -1.74)" style="fill:#4b5e6f"/><path d="M265.7,37.1h-.44V32.34q0-.65.05-1.35l-.14.13-1.38,1.09-.25-.32,1.78-1.33h.38Z" transform="translate(-1.04 -1.74)" style="fill:#4b5e6f"/><path d="M269.37,37.1,272.06,31h-3.7v-.43h4.23v.33l-2.7,6.21Z" transform="translate(-1.04 -1.74)" style="fill:#4b5e6f"/><path d="M206.52,31.5l-1.75,1.75L206.52,35l-.54.54-2.29-2.29L206,31Z" transform="translate(-1.04 -1.74)" style="fill:#4b5f6f"/><path d="M281.64,31l2.29,2.29-2.29,2.29L281.1,35l1.75-1.75L281.1,31.5Z" transform="translate(-1.04 -1.74)" style="fill:#4b5f6f"/></svg>