<svg xmlns="http://www.w3.org/2000/svg" viewBox="0 0 210 30"><defs><style>.a{fill:#fff;}</style></defs><title>logo</title><path class="a" d="M12.2,12.2l-0.5,1.6h1.6a14,14,0,0,1,.5-1.6H12.2Z" transform="translate(0.3)"/><path class="a" d="M23.5,21.2c1.1-1.4,2.6-3.1,2.6-8,0-7-5.9-12.6-13.3-12.6A12.9,12.9,0,0,0-.3,13.2C-0.3,25.6,14.9,30,18.8,30h0.8a5.2,5.2,0,0,0,3.1-.6c1.3-.7.8-2.2,0.4-3.2a5.7,5.7,0,0,1-.6-2.9A3.9,3.9,0,0,1,23.5,21.2Zm-4.4-11-0.4,1.2c-0.3.7-.4,0.7-1.6,0.7H16.4L16,13.7h1.6a0.3,0.3,0,0,1,.3.4h0l-0.4,1.2c-0.3.7-.4,0.7-1.6,0.7H15.2l-0.3.7c-0.6,2.1-.5,2.4-1.4,2.4H12.3a0.4,0.4,0,0,1-.4-0.4,10.3,10.3,0,0,1,.6-2.5H11c-0.9,2.7-.6,3-1.6,3H8a0.4,0.4,0,0,1-.4-0.4,10.4,10.4,0,0,1,.8-2.6H6.9a0.3,0.3,0,0,1-.3-0.4,1.9,1.9,0,0,1,.1-0.7c0.3-.9.4-1.2,0.9-1.2H9a8.9,8.9,0,0,1,.5-1.6,2.9,2.9,0,0,1-1.3-.1H8a0.3,0.3,0,0,1-.3-0.4A1.9,1.9,0,0,1,7.9,11c0.3-.9.4-1.2,0.9-1.2h1.5A21.5,21.5,0,0,0,11,7.5C11.2,7,11.5,7,12.4,7s1,0.1,1,.4V7.7c0,0.1-.4,1.5-0.5,2h1.8l0.6-2.1C15.5,7,15.8,7,16.7,7s1,0.1,1,.4V7.7c0,0.1-.4,1.5-0.5,2a4.8,4.8,0,0,1,1.8.1c0.1-.1.2,0,0.2,0.4h0Z" transform="translate(0.3)"/><path class="a" d="M39.6,29.2a10.3,10.3,0,0,1-3.9-.7,7.4,7.4,0,0,1-2.8-2,9,9,0,0,1-1.7-3.2,13.1,13.1,0,0,1-.6-4.1,13.1,13.1,0,0,1,.6-4.1A9.3,9.3,0,0,1,32.9,12a7.8,7.8,0,0,1,2.8-2.1,9,9,0,0,1,3.7-.7l2.9,0.3a7.4,7.4,0,0,1,2.1.7l-0.6,2.1-1.7-.6-2.5-.2a5.9,5.9,0,0,0-4.9,2.1,9.1,9.1,0,0,0-1.7,5.8,12.4,12.4,0,0,0,.4,3.1,6.3,6.3,0,0,0,1.2,2.5,5.6,5.6,0,0,0,2.2,1.6A8,8,0,0,0,40,27a8.4,8.4,0,0,0,2.6-.4l1.5-.6,0.5,2.1-2.1.7A12.5,12.5,0,0,1,39.6,29.2Z" transform="translate(0.3)"/><path class="a" d="M48.8,28.8V0.4L51.2,0V10.2l2.4-.7L56,9.2a9.6,9.6,0,0,1,3.7.6,5.7,5.7,0,0,1,2.4,1.8,7,7,0,0,1,1.2,2.8,17.1,17.1,0,0,1,.4,3.6V28.8H61.3V18.9a18.1,18.1,0,0,0-.3-3.5,5.8,5.8,0,0,0-.9-2.3,3.6,3.6,0,0,0-1.7-1.3,8.1,8.1,0,0,0-2.7-.4H54.3l-1.4.2-1.1.3-0.7.2V28.8H48.8Z" transform="translate(0.3)"/><path class="a" d="M68.8,19.2a12.2,12.2,0,0,1,.7-4.4,9.7,9.7,0,0,1,1.9-3.1,7.5,7.5,0,0,1,2.7-1.9,8.2,8.2,0,0,1,3.1-.6,7.3,7.3,0,0,1,5.6,2.3q2.1,2.3,2.1,7.1,0,0.3,0,.6v0.6H71.3a8.5,8.5,0,0,0,1.7,5.4Q74.7,27,78.3,27a10.5,10.5,0,0,0,3.1-.4l1.7-.6,0.4,2.1-2,.7a12.3,12.3,0,0,1-3.4.4,11.2,11.2,0,0,1-4.3-.7,7.7,7.7,0,0,1-2.9-2.1,8.2,8.2,0,0,1-1.7-3.2A14.7,14.7,0,0,1,68.8,19.2Zm13.6-1.5A7.6,7.6,0,0,0,81,13a4.6,4.6,0,0,0-3.8-1.7,5.1,5.1,0,0,0-2.3.5,5.9,5.9,0,0,0-1.8,1.4,6.5,6.5,0,0,0-1.2,2,8.3,8.3,0,0,0-.5,2.4h11Z" transform="translate(0.3)"/><path class="a" d="M98.2,29.2a10.3,10.3,0,0,1-3.9-.7,7.4,7.4,0,0,1-2.8-2,9,9,0,0,1-1.7-3.2,13.1,13.1,0,0,1-.6-4.1,13.1,13.1,0,0,1,.6-4.1A9.3,9.3,0,0,1,91.5,12a7.8,7.8,0,0,1,2.8-2.1A9,9,0,0,1,98,9.2l2.9,0.3a7.4,7.4,0,0,1,2.1.7l-0.6,2.1-1.7-.6-2.5-.2a5.9,5.9,0,0,0-4.9,2.1,9.1,9.1,0,0,0-1.7,5.8,12.4,12.4,0,0,0,.4,3.1,6.3,6.3,0,0,0,1.2,2.5,5.6,5.6,0,0,0,2.2,1.6,8,8,0,0,0,3.2.6,8.4,8.4,0,0,0,2.6-.4l1.5-.6,0.5,2.1-2.1.7A12.5,12.5,0,0,1,98.2,29.2Z" transform="translate(0.3)"/><path class="a" d="M112.2,18.4l2.7,2.1,2.6,2.6,2.5,2.9a32.9,32.9,0,0,1,2,2.8H119a23.7,23.7,0,0,0-2-2.9l-2.4-2.6L112,21a14.2,14.2,0,0,0-2.2-1.5v9.3h-2.4V0.4l2.4-.4V17.9l1.9-1.8,2.4-2.3,2.3-2.2,1.8-1.9h3l-2,2-2.3,2.3-2.4,2.3Z" transform="translate(0.3)"/><path class="a" d="M128.7,3.8a1.8,1.8,0,0,1-.5,1.4,1.8,1.8,0,0,1-2.5,0,1.8,1.8,0,0,1-.5-1.4,1.8,1.8,0,0,1,.5-1.4,1.8,1.8,0,0,1,2.5,0A1.8,1.8,0,0,1,128.7,3.8Zm-0.6,25h-2.4V9.6h2.4V28.8Z" transform="translate(0.3)"/><path class="a" d="M134.6,10.3l2.9-.7a22.8,22.8,0,0,1,4.5-.4,9.3,9.3,0,0,1,3.7.6,5.6,5.6,0,0,1,2.3,1.8,7.4,7.4,0,0,1,1.2,2.8,16.3,16.3,0,0,1,.4,3.6V28.8h-2.4V18.9a18.1,18.1,0,0,0-.3-3.5,5.8,5.8,0,0,0-.9-2.3,3.6,3.6,0,0,0-1.7-1.3,7.8,7.8,0,0,0-2.7-.4l-3,.2L137,12V28.8h-2.4V10.3Z" transform="translate(0.3)"/><path class="a" d="M155.1,8.4l2.2-1,2.3-1.3,2.1-1.4,1.8-1.6h3.9V28.8H162V10.3l-2.5,1.4-2.7,1.1Z" transform="translate(0.3)"/><path class="a" d="M193.5,15.9q0,6.5-2.5,10a8.4,8.4,0,0,1-13.6,0q-2.5-3.5-2.5-10a22.7,22.7,0,0,1,.7-5.7A12.6,12.6,0,0,1,177.4,6a8.4,8.4,0,0,1,2.9-2.6,8.2,8.2,0,0,1,3.8-.9A7.9,7.9,0,0,1,191,6Q193.5,9.4,193.5,15.9Zm-5.6,0a30.3,30.3,0,0,0-.2-3.5,12.6,12.6,0,0,0-.6-2.7A4.2,4.2,0,0,0,186,7.9a2.5,2.5,0,0,0-1.7-.6,2.5,2.5,0,0,0-1.7.6,4.5,4.5,0,0,0-1.1,1.8,11.9,11.9,0,0,0-.6,2.7,30.2,30.2,0,0,0-.2,3.5,30.6,30.6,0,0,0,.2,3.5,11.9,11.9,0,0,0,.6,2.7,4.5,4.5,0,0,0,1.1,1.8,2.5,2.5,0,0,0,1.7.6,2.5,2.5,0,0,0,1.7-.6,4.2,4.2,0,0,0,1.1-1.8,12.6,12.6,0,0,0,.6-2.7A30.7,30.7,0,0,0,187.8,15.9Z" transform="translate(0.3)"/><path class="a" d="M197.4,8.4l2.2-1,2.3-1.3L204,4.7l1.8-1.6h3.9V28.8h-5.5V10.3l-2.5,1.4L199,12.7Z" transform="translate(0.3)"/></svg>